<svg id="svg" version="1.1" xmlns="http://www.w3.org/2000/svg" xmlns:xlink="http://www.w3.org/1999/xlink" width="400" height="380.8955223880597" viewBox="0, 0, 400,380.8955223880597"><g id="svgg"><path id="path0" d="M158.095 0.381 C 158.095 0.607,156.698 0.762,154.667 0.762 C 151.873 0.762,151.238 0.868,151.238 1.333 C 151.238 1.794,150.646 1.905,148.190 1.905 C 145.735 1.905,145.143 2.016,145.143 2.476 C 145.143 2.921,144.634 3.048,142.845 3.048 C 141.154 3.048,140.490 3.199,140.328 3.619 C 140.179 4.007,139.572 4.190,138.435 4.190 C 137.202 4.190,136.762 4.341,136.762 4.762 C 136.762 5.205,136.258 5.333,134.517 5.333 C 132.873 5.333,132.213 5.486,132.053 5.905 C 131.908 6.283,131.310 6.476,130.286 6.476 C 129.261 6.476,128.664 6.669,128.519 7.048 C 128.396 7.368,127.829 7.619,127.228 7.619 C 125.771 7.619,124.952 7.976,124.952 8.612 C 124.952 8.965,124.505 9.143,123.619 9.143 C 122.688 9.143,122.286 9.315,122.286 9.714 C 122.286 10.138,121.841 10.286,120.571 10.286 C 119.302 10.286,118.857 10.434,118.857 10.857 C 118.857 11.280,118.413 11.429,117.143 11.429 C 115.873 11.429,115.429 11.577,115.429 12.000 C 115.429 12.399,115.026 12.571,114.095 12.571 C 113.164 12.571,112.762 12.744,112.762 13.143 C 112.762 13.524,112.381 13.714,111.619 13.714 C 110.857 13.714,110.476 13.905,110.476 14.286 C 110.476 14.667,110.095 14.857,109.333 14.857 C 108.571 14.857,108.190 15.048,108.190 15.429 C 108.190 15.811,107.808 16.000,107.036 16.000 C 106.361 16.000,105.790 16.237,105.662 16.571 C 105.541 16.886,105.016 17.143,104.495 17.143 C 103.868 17.143,103.480 17.401,103.348 17.905 C 103.207 18.444,102.829 18.667,102.051 18.667 C 101.328 18.667,100.952 18.862,100.952 19.238 C 100.952 19.619,100.571 19.810,99.810 19.810 C 99.048 19.810,98.667 20.000,98.667 20.381 C 98.667 20.780,98.265 20.952,97.333 20.952 C 96.402 20.952,96.000 21.125,96.000 21.524 C 96.000 21.905,95.619 22.095,94.857 22.095 C 94.095 22.095,93.714 22.286,93.714 22.667 C 93.714 23.024,93.353 23.238,92.750 23.238 C 92.220 23.238,91.687 23.495,91.566 23.810 C 91.446 24.124,91.108 24.381,90.816 24.381 C 90.525 24.381,90.286 24.638,90.286 24.952 C 90.286 25.307,89.926 25.524,89.337 25.524 C 88.800 25.524,88.181 25.855,87.912 26.286 C 87.650 26.705,87.220 27.048,86.956 27.048 C 86.692 27.048,86.476 27.305,86.476 27.619 C 86.476 28.000,86.095 28.190,85.333 28.190 C 84.571 28.190,84.190 28.381,84.190 28.762 C 84.190 29.076,83.933 29.333,83.619 29.333 C 83.305 29.333,83.048 29.590,83.048 29.905 C 83.048 30.286,82.667 30.476,81.905 30.476 C 81.143 30.476,80.762 30.667,80.762 31.048 C 80.762 31.362,80.499 31.619,80.179 31.619 C 79.858 31.619,79.496 31.876,79.376 32.190 C 79.255 32.505,78.741 32.762,78.233 32.762 C 77.725 32.762,77.211 33.019,77.090 33.333 C 76.970 33.648,76.632 33.905,76.340 33.905 C 76.048 33.905,75.810 34.144,75.810 34.435 C 75.810 34.727,75.552 35.065,75.238 35.185 C 74.924 35.306,74.667 35.667,74.667 35.988 C 74.667 36.382,74.296 36.571,73.524 36.571 C 72.762 36.571,72.381 36.762,72.381 37.143 C 72.381 37.457,72.124 37.714,71.810 37.714 C 71.495 37.714,71.238 37.971,71.238 38.286 C 71.238 38.603,70.899 38.857,70.476 38.857 C 70.053 38.857,69.714 39.111,69.714 39.429 C 69.714 39.786,69.353 40.000,68.750 40.000 C 68.220 40.000,67.687 40.257,67.566 40.571 C 67.446 40.886,67.108 41.143,66.816 41.143 C 66.525 41.143,66.286 41.400,66.286 41.714 C 66.286 42.029,66.029 42.286,65.714 42.286 C 65.400 42.286,65.143 42.543,65.143 42.857 C 65.143 43.171,64.886 43.429,64.571 43.429 C 64.254 43.429,64.000 43.767,64.000 44.190 C 64.000 44.614,63.746 44.952,63.429 44.952 C 63.114 44.952,62.857 45.210,62.857 45.524 C 62.857 45.841,62.519 46.095,62.095 46.095 C 61.672 46.095,61.333 46.349,61.333 46.667 C 61.333 46.981,61.076 47.238,60.762 47.238 C 60.448 47.238,60.190 47.495,60.190 47.810 C 60.190 48.140,59.845 48.381,59.371 48.381 C 58.559 48.381,54.476 52.201,54.476 52.961 C 54.476 53.166,54.219 53.333,53.905 53.333 C 53.590 53.333,53.333 53.590,53.333 53.905 C 53.333 54.219,53.169 54.476,52.968 54.476 C 52.232 54.476,49.524 57.425,49.524 58.227 C 49.524 58.702,49.284 59.048,48.952 59.048 C 48.638 59.048,48.381 59.305,48.381 59.619 C 48.381 59.933,48.124 60.190,47.810 60.190 C 47.495 60.190,47.238 60.429,47.238 60.721 C 47.238 61.013,46.981 61.350,46.667 61.471 C 46.352 61.592,46.095 61.953,46.095 62.274 C 46.095 62.595,45.838 62.857,45.524 62.857 C 45.210 62.857,44.952 63.114,44.952 63.429 C 44.952 63.743,44.690 64.000,44.369 64.000 C 44.048 64.000,43.687 64.257,43.566 64.571 C 43.446 64.886,43.108 65.143,42.816 65.143 C 42.525 65.143,42.286 65.382,42.286 65.674 C 42.286 65.965,42.029 66.303,41.714 66.423 C 41.400 66.544,41.143 67.077,41.143 67.607 C 41.143 68.210,40.929 68.571,40.571 68.571 C 40.257 68.571,40.000 68.829,40.000 69.143 C 40.000 69.457,39.743 69.714,39.429 69.714 C 39.111 69.714,38.857 70.053,38.857 70.476 C 38.857 70.899,38.603 71.238,38.286 71.238 C 37.971 71.238,37.714 71.495,37.714 71.810 C 37.714 72.124,37.457 72.381,37.143 72.381 C 36.762 72.381,36.571 72.762,36.571 73.524 C 36.571 74.152,36.381 74.667,36.149 74.667 C 35.408 74.667,33.918 76.351,33.911 77.197 C 33.908 77.646,33.648 78.112,33.333 78.233 C 33.019 78.354,32.762 78.715,32.762 79.036 C 32.762 79.357,32.505 79.619,32.190 79.619 C 31.810 79.619,31.619 80.000,31.619 80.762 C 31.619 81.524,31.429 81.905,31.048 81.905 C 30.733 81.905,30.476 82.162,30.476 82.476 C 30.476 82.790,30.219 83.048,29.905 83.048 C 29.524 83.048,29.333 83.429,29.333 84.190 C 29.333 84.952,29.143 85.333,28.762 85.333 C 28.448 85.333,28.190 85.590,28.190 85.905 C 28.190 86.219,27.933 86.476,27.619 86.476 C 27.220 86.476,27.048 86.878,27.048 87.810 C 27.048 88.889,26.902 89.143,26.286 89.143 C 25.867 89.143,25.524 89.382,25.524 89.674 C 25.524 89.965,25.267 90.303,24.952 90.423 C 24.638 90.544,24.381 91.077,24.381 91.607 C 24.381 92.210,24.167 92.571,23.810 92.571 C 23.429 92.571,23.238 92.952,23.238 93.714 C 23.238 94.476,23.048 94.857,22.667 94.857 C 22.268 94.857,22.095 95.259,22.095 96.190 C 22.095 97.122,21.923 97.524,21.524 97.524 C 21.143 97.524,20.952 97.905,20.952 98.667 C 20.952 99.429,20.762 99.810,20.381 99.810 C 20.000 99.810,19.810 100.190,19.810 100.952 C 19.810 101.714,19.619 102.095,19.238 102.095 C 18.862 102.095,18.667 102.471,18.667 103.194 C 18.667 103.972,18.444 104.350,17.905 104.491 C 17.350 104.636,17.143 105.011,17.143 105.869 C 17.143 106.663,16.956 107.048,16.571 107.048 C 16.190 107.048,16.000 107.429,16.000 108.190 C 16.000 108.952,15.810 109.333,15.429 109.333 C 15.052 109.333,14.857 109.710,14.857 110.435 C 14.857 111.064,14.611 111.632,14.286 111.757 C 13.894 111.907,13.714 112.519,13.714 113.702 C 13.714 114.983,13.567 115.429,13.143 115.429 C 12.762 115.429,12.571 115.810,12.571 116.571 C 12.571 117.333,12.381 117.714,12.000 117.714 C 11.577 117.714,11.429 118.159,11.429 119.429 C 11.429 120.698,11.280 121.143,10.857 121.143 C 10.425 121.143,10.286 121.608,10.286 123.048 C 10.286 124.487,10.146 124.952,9.714 124.952 C 9.291 124.952,9.143 125.397,9.143 126.667 C 9.143 128.127,9.030 128.381,8.381 128.381 C 7.735 128.381,7.619 128.635,7.619 130.054 C 7.619 131.191,7.436 131.798,7.048 131.947 C 6.656 132.098,6.476 132.710,6.476 133.893 C 6.476 135.173,6.329 135.619,5.905 135.619 C 5.461 135.619,5.333 136.122,5.333 137.864 C 5.333 139.508,5.180 140.168,4.762 140.328 C 4.341 140.490,4.190 141.154,4.190 142.845 C 4.190 144.634,4.064 145.143,3.619 145.143 C 3.159 145.143,3.048 145.735,3.048 148.190 C 3.048 150.646,2.937 151.238,2.476 151.238 C 2.011 151.238,1.905 151.873,1.905 154.667 C 1.905 157.460,1.799 158.095,1.333 158.095 C 0.860 158.095,0.762 158.815,0.762 162.286 C 0.762 164.825,0.612 166.476,0.381 166.476 C 0.131 166.476,0.000 174.095,0.000 188.571 C 0.000 203.048,0.131 210.667,0.381 210.667 C 0.615 210.667,0.762 212.508,0.762 215.429 C 0.762 219.407,0.856 220.190,1.333 220.190 C 1.794 220.190,1.905 220.783,1.905 223.238 C 1.905 225.693,2.016 226.286,2.476 226.286 C 2.934 226.286,3.048 226.858,3.048 229.155 C 3.048 231.354,3.181 232.075,3.619 232.243 C 4.038 232.404,4.190 233.063,4.190 234.707 C 4.190 236.449,4.319 236.952,4.762 236.952 C 5.207 236.952,5.333 237.462,5.333 239.250 C 5.333 240.941,5.484 241.606,5.905 241.767 C 6.293 241.916,6.476 242.524,6.476 243.660 C 6.476 244.893,6.626 245.333,7.048 245.333 C 7.473 245.333,7.619 245.782,7.619 247.083 C 7.619 248.513,7.759 248.870,8.381 249.032 C 8.997 249.193,9.143 249.552,9.143 250.902 C 9.143 252.132,9.293 252.571,9.714 252.571 C 10.138 252.571,10.286 253.016,10.286 254.286 C 10.286 255.556,10.434 256.000,10.857 256.000 C 11.289 256.000,11.429 256.466,11.429 257.905 C 11.429 259.344,11.568 259.810,12.000 259.810 C 12.381 259.810,12.571 260.190,12.571 260.952 C 12.571 261.714,12.762 262.095,13.143 262.095 C 13.566 262.095,13.714 262.540,13.714 263.810 C 13.714 265.079,13.862 265.524,14.286 265.524 C 14.668 265.524,14.857 265.906,14.857 266.679 C 14.857 267.354,15.095 267.925,15.429 268.053 C 15.754 268.178,16.000 268.746,16.000 269.374 C 16.000 270.100,16.195 270.476,16.571 270.476 C 16.932 270.476,17.143 270.840,17.143 271.464 C 17.143 272.132,17.390 272.517,17.905 272.652 C 18.477 272.801,18.667 273.171,18.667 274.140 C 18.667 275.031,18.843 275.429,19.238 275.429 C 19.619 275.429,19.810 275.810,19.810 276.571 C 19.810 277.333,20.000 277.714,20.381 277.714 C 20.762 277.714,20.952 278.095,20.952 278.857 C 20.952 279.619,21.143 280.000,21.524 280.000 C 21.905 280.000,22.095 280.381,22.095 281.143 C 22.095 281.905,22.286 282.286,22.667 282.286 C 23.049 282.286,23.238 282.668,23.238 283.441 C 23.238 284.116,23.475 284.686,23.810 284.815 C 24.124 284.935,24.381 285.450,24.381 285.957 C 24.381 286.465,24.638 286.980,24.952 287.100 C 25.267 287.221,25.524 287.558,25.524 287.850 C 25.524 288.142,25.867 288.381,26.286 288.381 C 26.878 288.381,27.048 288.635,27.048 289.524 C 27.048 290.286,27.238 290.667,27.619 290.667 C 28.000 290.667,28.190 291.048,28.190 291.810 C 28.190 292.571,28.381 292.952,28.762 292.952 C 29.079 292.952,29.333 293.291,29.333 293.714 C 29.333 294.138,29.587 294.476,29.905 294.476 C 30.262 294.476,30.476 294.837,30.476 295.441 C 30.476 295.971,30.733 296.504,31.048 296.624 C 31.362 296.745,31.619 297.082,31.619 297.374 C 31.619 297.666,31.876 297.905,32.190 297.905 C 32.548 297.905,32.762 298.266,32.762 298.869 C 32.762 299.399,33.019 299.932,33.333 300.053 C 33.648 300.173,33.905 300.511,33.905 300.803 C 33.905 301.095,34.150 301.333,34.451 301.333 C 34.751 301.333,35.105 301.676,35.238 302.095 C 35.371 302.514,35.726 302.857,36.026 302.857 C 36.378 302.857,36.571 303.262,36.571 304.000 C 36.571 304.762,36.762 305.143,37.143 305.143 C 37.457 305.143,37.714 305.400,37.714 305.714 C 37.714 306.029,37.971 306.286,38.286 306.286 C 38.600 306.286,38.857 306.543,38.857 306.857 C 38.857 307.171,39.114 307.429,39.429 307.429 C 39.810 307.429,40.000 307.810,40.000 308.571 C 40.000 309.333,40.190 309.714,40.571 309.714 C 40.886 309.714,41.143 309.906,41.143 310.140 C 41.143 310.694,43.973 313.524,44.527 313.524 C 44.761 313.524,44.952 313.781,44.952 314.095 C 44.952 314.410,45.210 314.667,45.524 314.667 C 45.905 314.667,46.095 315.048,46.095 315.810 C 46.095 316.571,46.286 316.952,46.667 316.952 C 46.981 316.952,47.238 317.210,47.238 317.524 C 47.238 317.838,47.495 318.095,47.810 318.095 C 48.124 318.095,48.381 318.272,48.381 318.489 C 48.381 318.706,48.895 319.386,49.524 320.000 C 50.152 320.614,50.667 321.294,50.667 321.511 C 50.667 321.728,50.924 321.905,51.238 321.905 C 51.552 321.905,51.810 322.162,51.810 322.476 C 51.810 322.790,52.072 323.048,52.393 323.048 C 52.714 323.048,53.075 323.305,53.196 323.619 C 53.316 323.933,53.654 324.190,53.946 324.190 C 54.237 324.190,54.476 324.448,54.476 324.762 C 54.476 325.076,54.733 325.333,55.048 325.333 C 55.362 325.333,55.619 325.590,55.619 325.905 C 55.619 326.219,55.876 326.476,56.190 326.476 C 56.505 326.476,56.762 326.733,56.762 327.048 C 56.762 327.362,57.019 327.619,57.333 327.619 C 57.651 327.619,57.905 327.958,57.905 328.381 C 57.905 328.800,58.079 329.143,58.292 329.143 C 58.505 329.143,59.419 329.914,60.322 330.857 C 61.225 331.800,62.165 332.571,62.411 332.571 C 62.656 332.571,62.857 332.829,62.857 333.143 C 62.857 333.457,63.114 333.714,63.429 333.714 C 63.743 333.714,64.000 333.971,64.000 334.286 C 64.000 334.600,64.257 334.857,64.571 334.857 C 64.886 334.857,65.143 335.114,65.143 335.429 C 65.143 335.810,65.524 336.000,66.286 336.000 C 67.175 336.000,67.429 336.169,67.429 336.762 C 67.429 337.185,67.683 337.524,68.000 337.524 C 68.314 337.524,68.571 337.781,68.571 338.095 C 68.571 338.410,68.810 338.667,69.102 338.667 C 69.394 338.667,69.731 338.924,69.852 339.238 C 70.329 340.481,73.524 339.984,73.524 338.667 C 73.524 337.905,73.333 337.524,72.952 337.524 C 72.568 337.524,72.381 337.139,72.381 336.345 C 72.381 335.487,72.174 335.113,71.619 334.968 C 71.003 334.807,70.857 334.448,70.857 333.098 C 70.857 331.868,70.707 331.429,70.286 331.429 C 69.862 331.429,69.714 330.984,69.714 329.714 C 69.714 328.444,69.566 328.000,69.143 328.000 C 68.683 328.000,68.571 327.407,68.571 324.952 C 68.571 322.497,68.460 321.905,68.000 321.905 C 67.523 321.905,67.429 321.122,67.429 317.143 C 67.429 313.164,67.335 312.381,66.857 312.381 C 66.363 312.381,66.286 310.940,66.286 301.702 C 66.286 292.562,66.203 290.992,65.714 290.804 C 65.400 290.684,65.143 290.346,65.143 290.054 C 65.143 289.763,65.400 289.524,65.714 289.524 C 66.207 289.524,66.286 288.212,66.286 280.000 C 66.286 271.788,66.364 270.476,66.857 270.476 C 67.335 270.476,67.429 269.693,67.429 265.714 C 67.429 261.735,67.523 260.952,68.000 260.952 C 68.460 260.952,68.571 260.360,68.571 257.905 C 68.571 255.450,68.683 254.857,69.143 254.857 C 69.600 254.857,69.714 254.286,69.714 252.000 C 69.714 249.714,69.829 249.143,70.286 249.143 C 70.734 249.143,70.857 248.619,70.857 246.711 C 70.857 244.600,70.958 244.253,71.619 244.080 C 72.276 243.908,72.381 243.560,72.381 241.559 C 72.381 239.750,72.507 239.238,72.952 239.238 C 73.397 239.238,73.524 238.730,73.524 236.952 C 73.524 235.175,73.651 234.667,74.095 234.667 C 74.516 234.667,74.667 234.227,74.667 232.993 C 74.667 231.857,74.850 231.249,75.238 231.100 C 75.630 230.950,75.810 230.338,75.810 229.155 C 75.810 227.874,75.957 227.429,76.381 227.429 C 76.804 227.429,76.952 226.984,76.952 225.714 C 76.952 224.444,77.101 224.000,77.524 224.000 C 77.956 224.000,78.095 223.534,78.095 222.095 C 78.095 220.656,78.235 220.190,78.667 220.190 C 79.048 220.190,79.238 219.810,79.238 219.048 C 79.238 218.329,79.434 217.905,79.765 217.905 C 80.311 217.905,80.748 216.791,80.757 215.374 C 80.760 214.925,81.019 214.459,81.333 214.338 C 81.661 214.213,81.905 213.644,81.905 213.005 C 81.905 212.366,82.149 211.798,82.476 211.672 C 82.853 211.527,83.048 210.930,83.048 209.917 C 83.048 208.806,83.206 208.381,83.619 208.381 C 84.000 208.381,84.190 208.000,84.190 207.238 C 84.190 206.476,84.381 206.095,84.762 206.095 C 85.161 206.095,85.333 205.693,85.333 204.762 C 85.333 203.831,85.506 203.429,85.905 203.429 C 86.286 203.429,86.476 203.048,86.476 202.286 C 86.476 201.524,86.667 201.143,87.048 201.143 C 87.429 201.143,87.619 200.762,87.619 200.000 C 87.619 199.238,87.810 198.857,88.190 198.857 C 88.603 198.857,88.762 198.434,88.762 197.337 C 88.762 196.229,88.969 195.687,89.524 195.340 C 89.987 195.051,90.286 194.452,90.286 193.813 C 90.286 193.133,90.487 192.762,90.857 192.762 C 91.238 192.762,91.429 192.381,91.429 191.619 C 91.429 190.857,91.619 190.476,92.000 190.476 C 92.314 190.476,92.571 190.237,92.571 189.946 C 92.571 189.654,92.829 189.316,93.143 189.196 C 93.477 189.067,93.714 188.497,93.714 187.821 C 93.714 187.049,93.903 186.667,94.286 186.667 C 94.667 186.667,94.857 186.286,94.857 185.524 C 94.857 184.762,95.048 184.381,95.429 184.381 C 95.810 184.381,96.000 184.000,96.000 183.238 C 96.000 182.476,96.190 182.095,96.571 182.095 C 96.947 182.095,97.143 181.719,97.143 180.997 C 97.143 180.219,97.365 179.840,97.905 179.699 C 98.460 179.554,98.667 179.180,98.667 178.321 C 98.667 177.528,98.853 177.143,99.238 177.143 C 99.552 177.143,99.810 176.904,99.810 176.612 C 99.810 176.320,100.067 175.983,100.381 175.862 C 100.695 175.742,100.952 175.209,100.952 174.679 C 100.952 174.075,101.166 173.714,101.524 173.714 C 101.905 173.714,102.095 173.333,102.095 172.571 C 102.095 171.810,102.286 171.429,102.667 171.429 C 102.981 171.429,103.238 171.190,103.238 170.898 C 103.238 170.606,103.495 170.269,103.810 170.148 C 104.144 170.020,104.381 169.449,104.381 168.774 C 104.381 168.001,104.570 167.619,104.952 167.619 C 105.333 167.619,105.524 167.238,105.524 166.476 C 105.524 165.848,105.703 165.333,105.923 165.333 C 106.488 165.333,108.190 163.423,108.190 162.789 C 108.190 162.498,108.705 161.757,109.333 161.143 C 110.009 160.483,110.476 159.631,110.476 159.060 C 110.476 158.456,110.690 158.095,111.048 158.095 C 111.471 158.095,111.619 157.651,111.619 156.381 L 111.619 154.667 108.750 154.667 C 106.551 154.667,105.830 154.800,105.662 155.238 C 105.496 155.670,104.798 155.810,102.804 155.810 C 100.811 155.810,100.113 155.949,99.947 156.381 C 99.798 156.770,99.189 156.952,98.043 156.952 C 96.896 156.952,96.287 157.135,96.138 157.524 C 95.994 157.900,95.398 158.095,94.400 158.095 C 93.201 158.095,92.839 158.256,92.682 158.857 C 92.521 159.473,92.162 159.619,90.813 159.619 C 89.582 159.619,89.143 159.769,89.143 160.190 C 89.143 160.590,88.741 160.762,87.810 160.762 C 86.878 160.762,86.476 160.934,86.476 161.333 C 86.476 161.757,86.032 161.905,84.762 161.905 C 83.492 161.905,83.048 162.053,83.048 162.476 C 83.048 162.857,82.667 163.048,81.905 163.048 C 81.143 163.048,80.762 163.238,80.762 163.619 C 80.762 164.001,80.380 164.190,79.607 164.190 C 78.932 164.190,78.361 164.428,78.233 164.762 C 78.112 165.076,77.598 165.333,77.090 165.333 C 76.582 165.333,76.068 165.590,75.947 165.905 C 75.827 166.219,75.312 166.476,74.804 166.476 C 74.296 166.476,73.786 166.723,73.671 167.024 C 73.555 167.326,72.960 167.682,72.349 167.817 C 71.738 167.951,71.238 168.304,71.238 168.602 C 71.238 168.899,70.895 169.143,70.476 169.143 C 70.053 169.143,69.714 169.397,69.714 169.714 C 69.714 170.095,69.333 170.286,68.571 170.286 C 67.810 170.286,67.429 170.476,67.429 170.857 C 67.429 171.171,67.171 171.429,66.857 171.429 C 66.543 171.429,66.286 171.686,66.286 172.000 C 66.286 172.381,65.905 172.571,65.143 172.571 C 64.381 172.571,64.000 172.762,64.000 173.143 C 64.000 173.457,63.743 173.714,63.429 173.714 C 63.114 173.714,62.857 173.971,62.857 174.286 C 62.857 174.600,62.595 174.857,62.274 174.857 C 61.953 174.857,61.596 175.104,61.480 175.405 C 61.364 175.707,60.770 176.063,60.159 176.197 C 59.548 176.332,59.048 176.685,59.048 176.983 C 59.048 177.280,58.790 177.524,58.476 177.524 C 58.162 177.524,57.905 177.781,57.905 178.095 C 57.905 178.410,57.648 178.667,57.333 178.667 C 57.019 178.667,56.762 178.924,56.762 179.238 C 56.762 179.552,56.505 179.810,56.190 179.810 C 55.876 179.810,55.619 180.067,55.619 180.381 C 55.619 180.695,55.362 180.952,55.048 180.952 C 54.733 180.952,54.476 181.210,54.476 181.524 C 54.476 181.838,54.214 182.095,53.893 182.095 C 53.572 182.095,53.211 182.352,53.090 182.667 C 52.970 182.981,52.632 183.238,52.340 183.238 C 52.048 183.238,51.810 183.495,51.810 183.810 C 51.810 184.124,51.552 184.381,51.238 184.381 C 50.924 184.381,50.667 184.643,50.667 184.964 C 50.667 185.285,50.410 185.646,50.095 185.767 C 49.781 185.888,49.524 186.225,49.524 186.517 C 49.524 186.809,49.267 187.048,48.952 187.048 C 48.638 187.048,48.381 187.305,48.381 187.619 C 48.381 187.933,48.124 188.190,47.810 188.190 C 47.495 188.190,47.238 188.448,47.238 188.762 C 47.238 189.076,46.981 189.333,46.667 189.333 C 46.352 189.333,46.095 189.590,46.095 189.905 C 46.095 190.219,45.838 190.476,45.524 190.476 C 45.143 190.476,44.952 190.857,44.952 191.619 C 44.952 192.276,44.750 192.765,44.476 192.768 C 43.895 192.777,42.286 194.421,42.286 195.006 C 42.286 195.238,42.029 195.429,41.714 195.429 C 41.333 195.429,41.143 195.810,41.143 196.571 C 41.143 197.333,40.952 197.714,40.571 197.714 C 40.172 197.714,40.000 197.312,40.000 196.381 C 40.000 195.450,40.172 195.048,40.571 195.048 C 41.016 195.048,41.143 194.540,41.143 192.762 C 41.143 190.984,41.270 190.476,41.714 190.476 C 42.136 190.476,42.286 190.036,42.286 188.803 C 42.286 187.667,42.469 187.059,42.857 186.910 C 43.249 186.760,43.429 186.147,43.429 184.964 C 43.429 183.749,43.584 183.238,43.956 183.238 C 44.502 183.238,44.938 182.124,44.947 180.707 C 44.950 180.258,45.210 179.792,45.524 179.672 C 45.915 179.521,46.095 178.909,46.095 177.726 C 46.095 176.446,46.243 176.000,46.667 176.000 C 47.048 176.000,47.238 175.619,47.238 174.857 C 47.238 174.095,47.429 173.714,47.810 173.714 C 48.186 173.714,48.381 173.338,48.381 172.612 C 48.381 171.984,48.627 171.416,48.952 171.291 C 49.286 171.163,49.524 170.592,49.524 169.917 C 49.524 169.144,49.713 168.762,50.095 168.762 C 50.476 168.762,50.667 168.381,50.667 167.619 C 50.667 166.857,50.857 166.476,51.238 166.476 C 51.619 166.476,51.810 166.095,51.810 165.333 C 51.810 164.571,52.000 164.190,52.381 164.190 C 52.762 164.190,52.952 163.810,52.952 163.048 C 52.952 162.325,53.147 161.905,53.483 161.905 C 54.066 161.905,54.476 161.104,54.476 159.969 C 54.476 159.567,54.733 159.238,55.048 159.238 C 55.362 159.238,55.619 158.999,55.619 158.707 C 55.619 158.416,55.876 158.078,56.190 157.957 C 56.505 157.837,56.762 157.304,56.762 156.774 C 56.762 156.171,56.976 155.810,57.333 155.810 C 57.714 155.810,57.905 155.429,57.905 154.667 C 57.905 153.905,58.095 153.524,58.476 153.524 C 58.790 153.524,59.048 153.285,59.048 152.993 C 59.048 152.701,59.305 152.364,59.619 152.243 C 59.953 152.115,60.190 151.544,60.190 150.869 C 60.190 150.097,60.380 149.714,60.762 149.714 C 61.143 149.714,61.333 149.333,61.333 148.571 C 61.333 147.943,61.525 147.429,61.759 147.429 C 62.491 147.429,65.143 144.510,65.143 143.705 C 65.143 143.283,65.400 142.840,65.714 142.719 C 66.029 142.599,66.286 142.238,66.286 141.917 C 66.286 141.596,66.543 141.333,66.857 141.333 C 67.171 141.333,67.429 141.076,67.429 140.762 C 67.429 140.448,67.686 140.190,68.000 140.190 C 68.314 140.190,68.571 139.933,68.571 139.619 C 68.571 139.305,68.829 139.048,69.143 139.048 C 69.457 139.048,69.714 138.790,69.714 138.476 C 69.714 138.162,69.971 137.905,70.286 137.905 C 70.600 137.905,70.857 137.648,70.857 137.333 C 70.857 137.019,71.101 136.762,71.398 136.762 C 71.696 136.762,72.052 136.248,72.190 135.619 C 72.329 134.990,72.685 134.476,72.983 134.476 C 73.280 134.476,73.524 134.237,73.524 133.946 C 73.524 133.654,73.781 133.316,74.095 133.196 C 74.410 133.075,74.667 132.714,74.667 132.393 C 74.667 131.999,75.037 131.810,75.810 131.810 C 76.571 131.810,76.952 131.619,76.952 131.238 C 76.952 130.924,77.210 130.667,77.524 130.667 C 77.838 130.667,78.095 130.410,78.095 130.095 C 78.095 129.781,78.352 129.524,78.667 129.524 C 78.981 129.524,79.238 129.267,79.238 128.952 C 79.238 128.638,79.415 128.381,79.632 128.381 C 79.848 128.381,80.528 127.867,81.143 127.238 C 81.757 126.610,82.437 126.095,82.654 126.095 C 82.870 126.095,83.048 125.852,83.048 125.554 C 83.048 125.256,83.562 124.900,84.190 124.762 C 84.819 124.624,85.333 124.267,85.333 123.970 C 85.333 123.672,85.590 123.429,85.905 123.429 C 86.219 123.429,86.476 123.171,86.476 122.857 C 86.476 122.543,86.733 122.286,87.048 122.286 C 87.362 122.286,87.619 122.029,87.619 121.714 C 87.619 121.338,87.995 121.143,88.721 121.143 C 89.349 121.143,89.918 120.897,90.043 120.571 C 90.163 120.257,90.524 120.000,90.845 120.000 C 91.166 120.000,91.429 119.743,91.429 119.429 C 91.429 119.071,91.790 118.857,92.393 118.857 C 92.923 118.857,93.456 118.600,93.577 118.286 C 93.697 117.971,94.035 117.714,94.326 117.714 C 94.618 117.714,94.857 117.457,94.857 117.143 C 94.857 116.762,95.238 116.571,96.000 116.571 C 96.770 116.571,97.143 116.382,97.143 115.990 C 97.143 115.646,97.622 115.314,98.318 115.174 C 98.965 115.045,99.583 114.707,99.693 114.422 C 99.802 114.138,100.130 113.905,100.422 113.905 C 100.714 113.905,100.952 113.648,100.952 113.333 C 100.952 112.952,101.333 112.762,102.095 112.762 C 102.857 112.762,103.238 112.571,103.238 112.190 C 103.238 111.810,103.619 111.619,104.381 111.619 C 105.143 111.619,105.524 111.429,105.524 111.048 C 105.524 110.649,105.926 110.476,106.857 110.476 C 107.788 110.476,108.190 110.304,108.190 109.905 C 108.190 109.491,108.615 109.333,109.726 109.333 C 110.740 109.333,111.337 109.139,111.481 108.762 C 111.602 108.448,112.116 108.190,112.624 108.190 C 113.132 108.190,113.646 107.933,113.767 107.619 C 113.894 107.288,114.464 107.048,115.124 107.048 C 115.941 107.048,116.318 106.833,116.461 106.286 C 116.622 105.670,116.981 105.524,118.330 105.524 C 119.560 105.524,120.000 105.373,120.000 104.952 C 120.000 104.529,120.444 104.381,121.714 104.381 C 122.984 104.381,123.429 104.233,123.429 103.810 C 123.429 103.410,123.831 103.238,124.762 103.238 C 125.693 103.238,126.095 103.066,126.095 102.667 C 126.095 102.243,126.540 102.095,127.810 102.095 C 129.079 102.095,129.524 101.947,129.524 101.524 C 129.524 101.101,129.968 100.952,131.238 100.952 C 132.508 100.952,132.952 100.804,132.952 100.381 C 132.952 99.949,133.418 99.810,134.857 99.810 C 136.296 99.810,136.762 99.670,136.762 99.238 C 136.762 98.815,137.206 98.667,138.476 98.667 C 139.937 98.667,140.190 98.554,140.190 97.905 C 140.190 97.227,140.444 97.143,142.488 97.143 C 144.179 97.143,144.844 96.992,145.005 96.571 C 145.154 96.183,145.762 96.000,146.898 96.000 C 148.132 96.000,148.571 95.850,148.571 95.429 C 148.571 94.979,149.101 94.857,151.048 94.857 C 152.995 94.857,153.524 94.735,153.524 94.286 C 153.524 93.841,154.032 93.714,155.810 93.714 C 157.587 93.714,158.095 93.587,158.095 93.143 C 158.095 92.698,158.605 92.571,160.393 92.571 C 162.084 92.571,162.748 92.421,162.910 92.000 C 163.070 91.582,163.730 91.429,165.374 91.429 C 167.116 91.429,167.619 91.300,167.619 90.857 C 167.619 90.412,168.128 90.286,169.917 90.286 C 171.608 90.286,172.272 90.135,172.434 89.714 C 172.572 89.353,173.162 89.141,174.041 89.138 C 175.992 89.130,177.143 88.762,177.143 88.146 C 177.143 87.751,177.765 87.619,179.619 87.619 C 181.566 87.619,182.095 87.497,182.095 87.048 C 182.095 86.603,182.603 86.476,184.381 86.476 C 186.159 86.476,186.667 86.349,186.667 85.905 C 186.667 85.455,187.196 85.333,189.143 85.333 C 191.090 85.333,191.619 85.211,191.619 84.762 C 191.619 84.339,192.063 84.190,193.333 84.190 C 194.603 84.190,195.048 84.042,195.048 83.619 C 195.048 83.174,195.557 83.048,197.345 83.048 C 199.036 83.048,199.701 82.897,199.862 82.476 C 200.011 82.088,200.619 81.905,201.755 81.905 C 202.989 81.905,203.429 81.755,203.429 81.333 C 203.429 80.908,203.877 80.762,205.179 80.762 C 206.608 80.762,206.965 80.622,207.128 80.000 C 207.289 79.384,207.647 79.238,208.997 79.238 C 210.227 79.238,210.667 79.088,210.667 78.667 C 210.667 78.243,211.112 78.095,212.393 78.095 C 213.576 78.095,214.188 77.915,214.338 77.524 C 214.487 77.136,215.095 76.952,216.231 76.952 C 217.465 76.952,217.905 76.802,217.905 76.381 C 217.905 75.958,218.349 75.810,219.619 75.810 C 220.889 75.810,221.333 75.661,221.333 75.238 C 221.333 74.856,221.716 74.667,222.488 74.667 C 223.163 74.667,223.734 74.429,223.862 74.095 C 224.006 73.722,224.599 73.524,225.577 73.524 C 226.554 73.524,227.147 73.326,227.291 72.952 C 227.416 72.627,227.984 72.381,228.612 72.381 C 229.299 72.381,229.714 72.181,229.714 71.852 C 229.714 71.549,230.284 71.216,231.048 71.073 C 231.846 70.923,232.381 70.600,232.381 70.268 C 232.381 69.866,232.849 69.714,234.095 69.714 C 235.365 69.714,235.810 69.566,235.810 69.143 C 235.810 68.762,236.190 68.571,236.952 68.571 C 237.714 68.571,238.095 68.381,238.095 68.000 C 238.095 67.618,238.478 67.429,239.250 67.429 C 239.925 67.429,240.496 67.191,240.624 66.857 C 240.749 66.531,241.317 66.286,241.946 66.286 C 242.671 66.286,243.048 66.091,243.048 65.714 C 243.048 65.333,243.429 65.143,244.190 65.143 C 244.952 65.143,245.333 64.952,245.333 64.571 C 245.333 64.190,245.714 64.000,246.476 64.000 C 247.238 64.000,247.619 63.810,247.619 63.429 C 247.619 63.044,248.004 62.857,248.798 62.857 C 249.656 62.857,250.030 62.650,250.175 62.095 C 250.316 61.556,250.695 61.333,251.473 61.333 C 252.195 61.333,252.571 61.138,252.571 60.762 C 252.571 60.381,252.952 60.190,253.714 60.190 C 254.476 60.190,254.857 60.000,254.857 59.619 C 254.857 59.238,255.238 59.048,256.000 59.048 C 256.762 59.048,257.143 58.857,257.143 58.476 C 257.143 58.094,257.525 57.905,258.298 57.905 C 258.973 57.905,259.544 57.667,259.672 57.333 C 259.792 57.019,260.307 56.762,260.815 56.762 C 261.323 56.762,261.837 56.505,261.957 56.190 C 262.078 55.876,262.416 55.619,262.707 55.619 C 262.999 55.619,263.238 55.362,263.238 55.048 C 263.238 54.667,263.619 54.476,264.381 54.476 C 265.270 54.476,265.524 54.307,265.524 53.714 C 265.524 53.120,265.778 52.952,266.679 52.952 C 267.354 52.952,267.925 52.715,268.053 52.381 C 268.173 52.067,268.511 51.810,268.803 51.810 C 269.095 51.810,269.333 51.552,269.333 51.238 C 269.333 50.857,269.714 50.667,270.476 50.667 C 271.238 50.667,271.619 50.476,271.619 50.095 C 271.619 49.714,272.000 49.524,272.762 49.524 C 273.524 49.524,273.905 49.333,273.905 48.952 C 273.905 48.638,274.162 48.381,274.476 48.381 C 274.790 48.381,275.048 48.124,275.048 47.810 C 275.048 47.452,275.409 47.238,276.013 47.238 C 276.580 47.238,277.433 46.773,278.082 46.109 C 278.689 45.488,279.626 44.870,280.164 44.734 C 280.702 44.599,281.143 44.250,281.143 43.959 C 281.143 43.667,281.400 43.429,281.714 43.429 C 282.029 43.429,282.286 43.171,282.286 42.857 C 282.286 42.543,282.543 42.286,282.857 42.286 C 283.171 42.286,283.429 42.029,283.429 41.714 C 283.429 41.338,283.805 41.143,284.531 41.143 C 285.159 41.143,285.727 40.897,285.852 40.571 C 285.973 40.257,286.334 40.000,286.655 40.000 C 286.976 40.000,287.238 39.743,287.238 39.429 C 287.238 39.114,287.495 38.857,287.810 38.857 C 288.124 38.857,288.381 38.600,288.381 38.286 C 288.381 37.971,288.638 37.714,288.952 37.714 C 289.267 37.714,289.524 37.471,289.524 37.173 C 289.524 36.875,290.038 36.519,290.667 36.381 C 291.295 36.243,291.810 35.886,291.810 35.589 C 291.810 35.291,292.067 35.048,292.381 35.048 C 292.695 35.048,292.952 34.790,292.952 34.476 C 292.952 34.162,293.215 33.905,293.536 33.905 C 293.857 33.905,294.218 33.648,294.338 33.333 C 294.771 32.207,295.619 32.712,295.619 34.095 C 295.619 35.026,295.447 35.429,295.048 35.429 C 294.624 35.429,294.476 35.873,294.476 37.143 C 294.476 38.350,294.320 38.857,293.948 38.857 C 293.616 38.857,293.326 39.481,293.167 40.540 C 293.029 41.466,292.666 42.430,292.362 42.682 C 292.058 42.935,291.810 43.787,291.810 44.577 C 291.810 45.503,291.606 46.092,291.238 46.233 C 290.861 46.378,290.667 46.974,290.667 47.988 C 290.667 49.099,290.509 49.524,290.095 49.524 C 289.663 49.524,289.524 49.989,289.524 51.429 C 289.524 52.868,289.384 53.333,288.952 53.333 C 288.571 53.333,288.381 53.714,288.381 54.476 C 288.381 55.238,288.190 55.619,287.810 55.619 C 287.386 55.619,287.238 56.063,287.238 57.333 C 287.238 58.603,287.090 59.048,286.667 59.048 C 286.284 59.048,286.095 59.430,286.095 60.202 C 286.095 60.878,285.858 61.448,285.524 61.577 C 285.136 61.725,284.952 62.333,284.952 63.469 C 284.952 64.889,284.837 65.143,284.190 65.143 C 283.604 65.143,283.429 65.397,283.429 66.245 C 283.429 66.873,283.183 67.441,282.857 67.566 C 282.543 67.687,282.286 68.225,282.286 68.762 C 282.286 69.299,282.029 69.837,281.714 69.957 C 281.389 70.082,281.143 70.651,281.143 71.279 C 281.143 72.005,280.948 72.381,280.571 72.381 C 280.190 72.381,280.000 72.762,280.000 73.524 C 280.000 74.286,279.810 74.667,279.429 74.667 C 279.052 74.667,278.857 75.043,278.857 75.769 C 278.857 76.397,278.611 76.965,278.286 77.090 C 277.952 77.218,277.714 77.789,277.714 78.464 C 277.714 79.237,277.525 79.619,277.143 79.619 C 276.762 79.619,276.571 80.000,276.571 80.762 C 276.571 81.495,276.378 81.905,276.030 81.905 C 275.733 81.905,275.379 82.405,275.245 83.016 C 275.111 83.627,274.754 84.221,274.453 84.337 C 274.151 84.453,273.905 84.981,273.905 85.512 C 273.905 86.115,273.691 86.476,273.333 86.476 C 273.016 86.476,272.762 86.815,272.762 87.238 C 272.762 87.661,272.508 88.000,272.190 88.000 C 271.810 88.000,271.619 88.381,271.619 89.143 C 271.619 89.905,271.429 90.286,271.048 90.286 C 270.667 90.286,270.476 90.667,270.476 91.429 C 270.476 92.190,270.286 92.571,269.905 92.571 C 269.590 92.571,269.333 92.829,269.333 93.143 C 269.333 93.457,269.076 93.714,268.762 93.714 C 268.381 93.714,268.190 94.095,268.190 94.857 C 268.190 95.619,268.000 96.000,267.619 96.000 C 267.305 96.000,267.048 96.323,267.048 96.717 C 267.048 97.115,266.707 97.524,266.286 97.634 C 265.771 97.769,265.524 98.154,265.524 98.821 C 265.524 99.446,265.313 99.810,264.952 99.810 C 264.638 99.810,264.381 100.067,264.381 100.381 C 264.381 100.695,264.124 100.952,263.810 100.952 C 263.495 100.952,263.238 101.210,263.238 101.524 C 263.238 101.838,262.981 102.095,262.667 102.095 C 262.352 102.095,262.095 102.334,262.095 102.626 C 262.095 102.918,261.838 103.255,261.524 103.376 C 261.210 103.496,260.952 104.029,260.952 104.559 C 260.952 105.163,260.738 105.524,260.381 105.524 C 260.063 105.524,259.810 105.862,259.810 106.286 C 259.810 106.709,259.556 107.048,259.238 107.048 C 258.924 107.048,258.667 107.305,258.667 107.619 C 258.667 107.933,258.404 108.190,258.083 108.190 C 257.762 108.190,257.401 108.448,257.281 108.762 C 257.160 109.076,256.823 109.333,256.531 109.333 C 256.239 109.333,256.000 109.590,256.000 109.905 C 256.000 110.219,255.743 110.476,255.429 110.476 C 255.114 110.476,254.857 110.733,254.857 111.048 C 254.857 111.362,254.600 111.619,254.286 111.619 C 253.971 111.619,253.714 111.876,253.714 112.190 C 253.714 112.505,253.457 112.762,253.143 112.762 C 252.829 112.762,252.571 113.019,252.571 113.333 C 252.571 113.648,252.314 113.905,252.000 113.905 C 251.683 113.905,251.429 114.243,251.429 114.667 C 251.429 115.090,251.175 115.429,250.857 115.429 C 250.543 115.429,250.286 115.686,250.286 116.000 C 250.286 116.314,250.029 116.571,249.714 116.571 C 249.400 116.571,249.143 116.829,249.143 117.143 C 249.143 117.525,248.761 117.714,247.988 117.714 C 247.313 117.714,246.742 117.952,246.614 118.286 C 246.493 118.600,246.156 118.857,245.864 118.857 C 245.572 118.857,245.333 119.114,245.333 119.429 C 245.333 119.743,245.076 120.000,244.762 120.000 C 244.448 120.000,244.190 120.257,244.190 120.571 C 244.190 120.952,243.810 121.143,243.048 121.143 C 242.286 121.143,241.905 121.333,241.905 121.714 C 241.905 122.029,241.648 122.286,241.333 122.286 C 241.019 122.286,240.762 122.535,240.762 122.840 C 240.762 123.172,240.227 123.494,239.429 123.644 C 238.665 123.787,238.095 124.120,238.095 124.423 C 238.095 124.714,237.838 124.952,237.524 124.952 C 237.210 124.952,236.952 125.210,236.952 125.524 C 236.952 125.905,236.571 126.095,235.810 126.095 C 235.048 126.095,234.667 126.286,234.667 126.667 C 234.667 127.048,234.286 127.238,233.524 127.238 C 232.762 127.238,232.381 127.429,232.381 127.810 C 232.381 128.192,231.999 128.381,231.226 128.381 C 230.551 128.381,229.980 128.618,229.852 128.952 C 229.731 129.267,229.217 129.524,228.709 129.524 C 228.201 129.524,227.687 129.781,227.566 130.095 C 227.441 130.421,226.873 130.667,226.245 130.667 C 225.519 130.667,225.143 130.862,225.143 131.238 C 225.143 131.619,224.762 131.810,224.000 131.810 C 223.111 131.810,222.857 131.979,222.857 132.571 C 222.857 133.232,222.603 133.333,220.952 133.333 C 219.513 133.333,219.048 133.473,219.048 133.905 C 219.048 134.328,218.603 134.476,217.333 134.476 C 216.063 134.476,215.619 134.624,215.619 135.048 C 215.619 135.471,215.173 135.619,213.893 135.619 C 212.710 135.619,212.098 135.799,211.947 136.190 C 211.798 136.578,211.191 136.762,210.054 136.762 C 208.821 136.762,208.381 136.912,208.381 137.333 C 208.381 137.778,207.872 137.905,206.083 137.905 C 204.392 137.905,203.728 138.056,203.566 138.476 C 203.399 138.913,202.683 139.048,200.531 139.048 C 198.281 139.048,197.714 139.163,197.714 139.619 C 197.714 140.064,197.205 140.190,195.417 140.190 C 193.726 140.190,193.061 140.341,192.900 140.762 C 192.744 141.166,192.108 141.335,190.721 141.339 C 187.423 141.347,187.048 141.561,187.048 143.429 C 187.048 144.734,186.897 145.093,186.286 145.253 C 185.641 145.422,185.524 145.773,185.524 147.543 C 185.524 149.049,185.364 149.694,184.952 149.852 C 184.532 150.013,184.381 150.678,184.381 152.369 C 184.381 154.157,184.254 154.667,183.810 154.667 C 183.349 154.667,183.238 155.259,183.238 157.714 C 183.238 160.169,183.127 160.762,182.667 160.762 C 182.199 160.762,182.095 161.418,182.095 164.381 C 182.095 167.344,181.992 168.000,181.524 168.000 C 181.046 168.000,180.952 168.783,180.952 172.762 C 180.952 176.741,180.858 177.524,180.381 177.524 C 179.898 177.524,179.810 178.434,179.810 183.429 C 179.810 188.423,179.721 189.333,179.238 189.333 C 178.739 189.333,178.667 191.450,178.667 206.095 C 178.667 220.741,178.739 222.857,179.238 222.857 C 179.719 222.857,179.810 223.704,179.810 228.190 C 179.810 232.677,179.900 233.524,180.381 233.524 C 180.847 233.524,180.952 234.160,180.952 236.964 C 180.952 239.671,181.074 240.452,181.524 240.624 C 181.960 240.792,182.095 241.508,182.095 243.660 C 182.095 245.909,182.210 246.476,182.667 246.476 C 183.091 246.476,183.238 246.922,183.238 248.202 C 183.238 249.385,183.418 249.998,183.810 250.148 C 184.228 250.309,184.381 250.968,184.381 252.612 C 184.381 254.354,184.509 254.857,184.952 254.857 C 185.349 254.857,185.524 255.256,185.524 256.159 C 185.524 257.837,185.852 258.667,186.517 258.667 C 186.892 258.667,187.048 259.170,187.048 260.381 C 187.048 261.651,187.196 262.095,187.619 262.095 C 188.042 262.095,188.190 262.540,188.190 263.810 C 188.190 265.079,188.339 265.524,188.762 265.524 C 189.161 265.524,189.333 265.926,189.333 266.857 C 189.333 267.788,189.506 268.190,189.905 268.190 C 190.328 268.190,190.476 268.635,190.476 269.905 C 190.476 271.175,190.624 271.619,191.048 271.619 C 191.429 271.619,191.619 272.000,191.619 272.762 C 191.619 273.524,191.810 273.905,192.190 273.905 C 192.573 273.905,192.762 274.287,192.762 275.060 C 192.762 275.735,192.999 276.305,193.333 276.434 C 193.648 276.554,193.905 277.069,193.905 277.577 C 193.905 278.084,194.151 278.595,194.453 278.710 C 194.754 278.826,195.111 279.421,195.245 280.032 C 195.379 280.643,195.733 281.143,196.030 281.143 C 196.378 281.143,196.571 281.552,196.571 282.286 C 196.571 283.048,196.762 283.429,197.143 283.429 C 197.460 283.429,197.714 283.767,197.714 284.190 C 197.714 284.614,197.968 284.952,198.286 284.952 C 198.667 284.952,198.857 285.333,198.857 286.095 C 198.857 286.857,199.048 287.238,199.429 287.238 C 199.810 287.238,200.000 287.619,200.000 288.381 C 200.000 289.143,200.190 289.524,200.571 289.524 C 200.886 289.524,201.143 289.781,201.143 290.095 C 201.143 290.410,201.400 290.667,201.714 290.667 C 202.067 290.667,202.286 291.024,202.286 291.599 C 202.286 292.570,203.766 294.476,204.520 294.476 C 204.758 294.476,204.952 294.990,204.952 295.619 C 204.952 296.381,205.143 296.762,205.524 296.762 C 205.838 296.762,206.095 297.019,206.095 297.333 C 206.095 297.648,206.352 297.905,206.667 297.905 C 206.981 297.905,207.238 298.162,207.238 298.476 C 207.238 298.790,207.495 299.048,207.810 299.048 C 208.124 299.048,208.381 299.305,208.381 299.619 C 208.381 299.933,208.638 300.190,208.952 300.190 C 209.305 300.190,209.524 300.548,209.524 301.127 C 209.524 302.098,212.078 305.143,212.893 305.143 C 213.135 305.143,213.333 305.400,213.333 305.714 C 213.333 306.029,213.590 306.286,213.905 306.286 C 214.219 306.286,214.476 306.543,214.476 306.857 C 214.476 307.171,214.733 307.429,215.048 307.429 C 215.362 307.429,215.619 307.686,215.619 308.000 C 215.619 308.314,215.876 308.571,216.190 308.571 C 216.505 308.571,216.762 308.829,216.762 309.143 C 216.762 309.457,217.019 309.714,217.333 309.714 C 217.648 309.714,217.905 309.912,217.905 310.154 C 217.905 310.673,220.819 313.524,221.349 313.524 C 221.550 313.524,221.714 313.781,221.714 314.095 C 221.714 314.476,222.095 314.667,222.857 314.667 C 223.619 314.667,224.000 314.857,224.000 315.238 C 224.000 315.552,224.257 315.810,224.571 315.810 C 224.886 315.810,225.143 316.067,225.143 316.381 C 225.143 316.695,225.400 316.952,225.714 316.952 C 226.029 316.952,226.286 317.210,226.286 317.524 C 226.286 317.905,226.667 318.095,227.429 318.095 C 228.085 318.095,228.574 318.298,228.578 318.571 C 228.586 319.152,230.230 320.762,230.816 320.762 C 231.048 320.762,231.238 321.019,231.238 321.333 C 231.238 321.714,231.619 321.905,232.381 321.905 C 233.143 321.905,233.524 322.095,233.524 322.476 C 233.524 322.857,233.905 323.048,234.667 323.048 C 235.429 323.048,235.810 323.238,235.810 323.619 C 235.810 323.933,236.048 324.190,236.340 324.190 C 236.632 324.190,236.970 324.448,237.090 324.762 C 237.211 325.076,237.749 325.333,238.286 325.333 C 238.823 325.333,239.361 325.590,239.481 325.905 C 239.606 326.230,240.174 326.476,240.803 326.476 C 241.528 326.476,241.905 326.671,241.905 327.048 C 241.905 327.429,242.286 327.619,243.048 327.619 C 243.771 327.619,244.190 327.814,244.190 328.150 C 244.190 328.786,245.009 329.143,246.467 329.143 C 247.067 329.143,247.634 329.394,247.757 329.714 C 247.885 330.048,248.456 330.286,249.131 330.286 C 249.903 330.286,250.286 330.475,250.286 330.857 C 250.286 331.280,250.730 331.429,252.000 331.429 C 253.270 331.429,253.714 331.577,253.714 332.000 C 253.714 332.424,254.160 332.571,255.441 332.571 C 256.624 332.571,257.236 332.751,257.386 333.143 C 257.547 333.561,258.206 333.714,259.850 333.714 C 261.592 333.714,262.095 333.842,262.095 334.286 C 262.095 334.746,262.688 334.857,265.143 334.857 C 267.598 334.857,268.190 334.968,268.190 335.429 C 268.190 335.927,270.159 336.000,283.619 336.000 C 297.079 336.000,299.048 335.927,299.048 335.429 C 299.048 334.968,299.640 334.857,302.095 334.857 C 304.550 334.857,305.143 334.746,305.143 334.286 C 305.143 333.841,305.651 333.714,307.429 333.714 C 309.206 333.714,309.714 333.587,309.714 333.143 C 309.714 332.719,310.160 332.571,311.441 332.571 C 312.624 332.571,313.236 332.392,313.386 332.000 C 313.511 331.674,314.079 331.429,314.707 331.429 C 315.433 331.429,315.810 331.233,315.810 330.857 C 315.810 330.476,316.190 330.286,316.952 330.286 C 317.714 330.286,318.095 330.095,318.095 329.714 C 318.095 329.329,318.480 329.143,319.274 329.143 C 320.132 329.143,320.506 328.936,320.652 328.381 C 320.793 327.841,321.171 327.619,321.949 327.619 C 322.672 327.619,323.048 327.423,323.048 327.048 C 323.048 326.667,323.429 326.476,324.190 326.476 C 324.952 326.476,325.333 326.286,325.333 325.905 C 325.333 325.590,325.590 325.333,325.905 325.333 C 326.219 325.333,326.476 325.076,326.476 324.762 C 326.476 324.448,326.733 324.190,327.048 324.190 C 327.362 324.190,327.619 323.933,327.619 323.619 C 327.619 323.262,327.980 323.048,328.580 323.048 C 329.541 323.048,333.714 319.339,333.714 318.484 C 333.714 318.270,333.971 318.095,334.286 318.095 C 334.600 318.095,334.857 317.838,334.857 317.524 C 334.857 317.210,335.114 316.952,335.429 316.952 C 335.743 316.952,336.000 316.695,336.000 316.381 C 336.000 316.067,336.257 315.810,336.571 315.810 C 336.886 315.810,337.143 315.552,337.143 315.238 C 337.143 314.924,337.334 314.667,337.569 314.667 C 338.436 314.667,340.952 311.726,340.952 310.711 C 340.952 310.079,341.161 309.714,341.524 309.714 C 341.838 309.714,342.095 309.457,342.095 309.143 C 342.095 308.829,342.352 308.571,342.667 308.571 C 342.981 308.571,343.238 308.314,343.238 308.000 C 343.238 307.686,343.495 307.429,343.810 307.429 C 344.124 307.429,344.381 307.171,344.381 306.857 C 344.381 306.543,344.638 306.286,344.952 306.286 C 345.333 306.286,345.524 305.905,345.524 305.143 C 345.524 304.381,345.714 304.000,346.095 304.000 C 346.410 304.000,346.667 303.763,346.667 303.473 C 346.667 303.183,347.010 302.856,347.429 302.747 C 347.983 302.602,348.190 302.227,348.190 301.369 C 348.190 300.575,348.377 300.190,348.762 300.190 C 349.076 300.190,349.333 299.933,349.333 299.619 C 349.333 299.305,349.590 299.048,349.905 299.048 C 350.219 299.048,350.476 298.790,350.476 298.476 C 350.476 298.162,350.733 297.905,351.048 297.905 C 351.429 297.905,351.619 297.524,351.619 296.762 C 351.619 296.000,351.810 295.619,352.190 295.619 C 352.571 295.619,352.762 295.238,352.762 294.476 C 352.762 293.714,352.952 293.333,353.333 293.333 C 353.651 293.333,353.905 292.995,353.905 292.571 C 353.905 292.148,354.159 291.810,354.476 291.810 C 354.857 291.810,355.048 291.429,355.048 290.667 C 355.048 289.778,355.217 289.524,355.810 289.524 C 356.229 289.524,356.571 289.285,356.571 288.993 C 356.571 288.701,356.829 288.364,357.143 288.243 C 357.457 288.123,357.714 287.608,357.714 287.100 C 357.714 286.592,357.971 286.078,358.286 285.957 C 358.620 285.829,358.857 285.258,358.857 284.583 C 358.857 283.811,359.046 283.429,359.429 283.429 C 359.810 283.429,360.000 283.048,360.000 282.286 C 360.000 281.524,360.190 281.143,360.571 281.143 C 360.952 281.143,361.143 280.762,361.143 280.000 C 361.143 279.238,361.333 278.857,361.714 278.857 C 362.029 278.857,362.286 278.618,362.286 278.326 C 362.286 278.035,362.543 277.697,362.857 277.577 C 363.191 277.448,363.429 276.878,363.429 276.202 C 363.429 275.470,363.622 275.048,363.959 275.048 C 364.250 275.048,364.602 274.598,364.739 274.049 C 364.877 273.500,365.239 272.802,365.543 272.498 C 365.847 272.194,366.095 271.358,366.095 270.639 C 366.095 269.732,366.270 269.333,366.667 269.333 C 367.043 269.333,367.238 268.957,367.238 268.231 C 367.238 267.603,367.484 267.035,367.810 266.910 C 368.144 266.782,368.381 266.211,368.381 265.536 C 368.381 264.763,368.570 264.381,368.952 264.381 C 369.333 264.381,369.524 264.000,369.524 263.238 C 369.524 262.476,369.714 262.095,370.095 262.095 C 370.519 262.095,370.667 261.651,370.667 260.381 C 370.667 259.111,370.815 258.667,371.238 258.667 C 371.637 258.667,371.810 258.265,371.810 257.333 C 371.810 256.402,371.982 256.000,372.381 256.000 C 372.804 256.000,372.952 255.556,372.952 254.286 C 372.952 253.074,373.108 252.571,373.483 252.571 C 374.126 252.571,374.476 251.750,374.476 250.243 C 374.476 249.595,374.718 249.026,375.048 248.900 C 375.433 248.752,375.619 248.148,375.619 247.048 C 375.619 245.948,375.806 245.343,376.190 245.196 C 376.601 245.038,376.762 244.395,376.762 242.910 C 376.762 241.424,376.923 240.782,377.333 240.624 C 377.754 240.463,377.905 239.798,377.905 238.107 C 377.905 236.319,378.031 235.810,378.476 235.810 C 378.919 235.810,379.048 235.306,379.048 233.565 C 379.048 231.920,379.201 231.261,379.619 231.100 C 380.057 230.932,380.190 230.211,380.190 228.012 C 380.190 225.716,380.305 225.143,380.762 225.143 C 381.235 225.143,381.333 224.423,381.333 220.952 C 381.333 217.625,381.443 216.762,381.864 216.762 C 382.722 216.762,382.857 215.855,382.857 210.105 C 382.857 205.610,382.957 204.614,383.429 204.434 C 384.292 204.102,384.292 177.524,383.429 177.524 C 382.947 177.524,382.857 176.661,382.857 172.048 C 382.857 165.956,382.632 164.190,381.857 164.190 C 381.449 164.190,381.333 163.388,381.333 160.571 C 381.333 157.608,381.230 156.952,380.762 156.952 C 380.305 156.952,380.190 156.381,380.190 154.095 C 380.190 151.810,380.076 151.238,379.619 151.238 C 379.159 151.238,379.048 150.646,379.048 148.190 C 379.048 145.735,378.937 145.143,378.476 145.143 C 378.033 145.143,377.905 144.639,377.905 142.898 C 377.905 141.254,377.752 140.594,377.333 140.434 C 376.942 140.283,376.762 139.671,376.762 138.488 C 376.762 137.208,376.614 136.762,376.190 136.762 C 375.767 136.762,375.619 136.317,375.619 135.048 C 375.619 133.778,375.471 133.333,375.048 133.333 C 374.623 133.333,374.476 132.885,374.476 131.583 C 374.476 130.154,374.337 129.797,373.714 129.634 C 373.099 129.473,372.952 129.115,372.952 127.765 C 372.952 126.535,372.802 126.095,372.381 126.095 C 371.949 126.095,371.810 125.630,371.810 124.190 C 371.810 122.751,371.670 122.286,371.238 122.286 C 370.815 122.286,370.667 121.841,370.667 120.571 C 370.667 119.302,370.519 118.857,370.095 118.857 C 369.714 118.857,369.524 118.476,369.524 117.714 C 369.524 116.952,369.333 116.571,368.952 116.571 C 368.570 116.571,368.381 116.189,368.381 115.417 C 368.381 114.742,368.144 114.171,367.810 114.043 C 367.436 113.899,367.238 113.306,367.238 112.328 C 367.238 111.351,367.040 110.757,366.667 110.614 C 366.352 110.493,366.095 109.979,366.095 109.471 C 366.095 108.963,365.849 108.453,365.547 108.337 C 365.246 108.221,364.892 107.641,364.762 107.048 C 364.632 106.454,364.278 105.874,363.977 105.758 C 363.667 105.639,363.429 105.046,363.429 104.393 C 363.429 103.620,363.239 103.238,362.857 103.238 C 362.476 103.238,362.286 102.857,362.286 102.095 C 362.286 101.333,362.095 100.952,361.714 100.952 C 361.333 100.952,361.143 100.571,361.143 99.810 C 361.143 99.048,360.952 98.667,360.571 98.667 C 360.195 98.667,360.000 98.290,360.000 97.565 C 360.000 96.936,359.754 96.368,359.429 96.243 C 359.114 96.123,358.857 95.761,358.857 95.441 C 358.857 95.120,358.600 94.857,358.286 94.857 C 357.905 94.857,357.714 94.476,357.714 93.714 C 357.714 92.952,357.524 92.571,357.143 92.571 C 356.782 92.571,356.571 92.208,356.571 91.583 C 356.571 90.916,356.324 90.531,355.810 90.396 C 355.390 90.287,355.048 89.960,355.048 89.670 C 355.048 89.380,354.790 89.143,354.476 89.143 C 354.077 89.143,353.905 88.741,353.905 87.810 C 353.905 86.878,353.732 86.476,353.333 86.476 C 352.952 86.476,352.762 86.095,352.762 85.333 C 352.762 84.571,352.571 84.190,352.190 84.190 C 351.876 84.190,351.619 83.933,351.619 83.619 C 351.619 83.305,351.362 83.048,351.048 83.048 C 350.667 83.048,350.476 82.667,350.476 81.905 C 350.476 81.143,350.286 80.762,349.905 80.762 C 349.590 80.762,349.333 80.505,349.333 80.190 C 349.333 79.876,349.076 79.619,348.762 79.619 C 348.448 79.619,348.190 79.400,348.190 79.132 C 348.190 78.865,347.848 78.352,347.429 77.993 C 347.010 77.634,346.667 76.996,346.667 76.575 C 346.667 76.149,346.414 75.810,346.095 75.810 C 345.781 75.810,345.524 75.552,345.524 75.238 C 345.524 74.924,345.267 74.667,344.952 74.667 C 344.638 74.667,344.381 74.410,344.381 74.095 C 344.381 73.781,344.124 73.524,343.810 73.524 C 343.495 73.524,343.238 73.267,343.238 72.952 C 343.238 72.638,342.981 72.381,342.667 72.381 C 342.286 72.381,342.095 72.000,342.095 71.238 C 342.095 70.476,341.905 70.095,341.524 70.095 C 341.210 70.095,340.952 69.833,340.952 69.512 C 340.952 69.191,340.695 68.830,340.381 68.709 C 340.067 68.589,339.810 68.251,339.810 67.959 C 339.810 67.667,339.571 67.429,339.279 67.429 C 338.987 67.429,338.650 67.171,338.529 66.857 C 338.408 66.543,338.047 66.286,337.726 66.286 C 337.405 66.286,337.143 66.029,337.143 65.714 C 337.143 65.400,336.886 65.143,336.571 65.143 C 336.190 65.143,336.000 64.762,336.000 64.000 C 336.000 63.238,335.810 62.857,335.429 62.857 C 335.114 62.857,334.857 62.600,334.857 62.286 C 334.857 61.971,334.600 61.714,334.286 61.714 C 333.968 61.714,333.714 61.376,333.714 60.952 C 333.714 60.529,333.460 60.190,333.143 60.190 C 332.829 60.190,332.571 59.933,332.571 59.619 C 332.571 59.305,332.314 59.048,332.000 59.048 C 331.686 59.048,331.429 58.790,331.429 58.476 C 331.429 58.162,331.171 57.905,330.857 57.905 C 330.543 57.905,330.286 57.648,330.286 57.333 C 330.286 57.016,329.947 56.762,329.524 56.762 C 329.101 56.762,328.762 56.508,328.762 56.190 C 328.762 55.876,328.505 55.619,328.190 55.619 C 327.876 55.619,327.619 55.362,327.619 55.048 C 327.619 54.733,327.362 54.476,327.048 54.476 C 326.733 54.476,326.476 54.219,326.476 53.905 C 326.476 53.590,326.219 53.333,325.905 53.333 C 325.587 53.333,325.333 52.995,325.333 52.571 C 325.333 52.148,325.079 51.810,324.762 51.810 C 324.448 51.810,324.190 51.552,324.190 51.238 C 324.190 50.924,323.933 50.667,323.619 50.667 C 323.305 50.667,323.048 50.410,323.048 50.095 C 323.048 49.781,322.790 49.524,322.476 49.524 C 322.162 49.524,321.905 49.267,321.905 48.952 C 321.905 48.638,321.666 48.381,321.374 48.381 C 321.082 48.381,320.745 48.124,320.624 47.810 C 320.504 47.495,320.142 47.238,319.821 47.238 C 319.501 47.238,319.238 46.981,319.238 46.667 C 319.238 46.352,318.981 46.095,318.667 46.095 C 318.352 46.095,318.095 45.838,318.095 45.524 C 318.095 45.210,317.838 44.952,317.524 44.952 C 317.210 44.952,316.952 44.709,316.952 44.411 C 316.952 44.114,316.438 43.757,315.810 43.619 C 315.181 43.481,314.667 43.125,314.667 42.827 C 314.667 42.529,314.410 42.286,314.095 42.286 C 313.781 42.286,313.524 42.029,313.524 41.714 C 313.524 41.400,313.285 41.143,312.993 41.143 C 312.701 41.143,312.364 40.886,312.243 40.571 C 312.123 40.257,311.761 40.000,311.441 40.000 C 311.120 40.000,310.857 39.743,310.857 39.429 C 310.857 39.048,310.476 38.857,309.714 38.857 C 308.952 38.857,308.571 38.667,308.571 38.286 C 308.571 37.971,308.314 37.714,308.000 37.714 C 307.686 37.714,307.429 37.457,307.429 37.143 C 307.429 36.829,307.171 36.571,306.857 36.571 C 306.543 36.571,306.286 36.314,306.286 36.000 C 306.286 35.686,306.029 35.429,305.714 35.429 C 305.400 35.429,305.143 35.167,305.143 34.848 C 305.143 34.510,304.675 34.173,304.024 34.043 C 303.409 33.920,302.815 33.581,302.703 33.291 C 302.591 33.000,302.238 32.762,301.917 32.762 C 301.596 32.762,301.333 32.505,301.333 32.190 C 301.333 31.810,300.952 31.619,300.190 31.619 C 299.429 31.619,299.048 31.429,299.048 31.048 C 299.048 30.667,298.667 30.476,297.905 30.476 C 296.889 30.476,296.762 30.349,296.762 29.333 C 296.762 28.610,296.567 28.190,296.231 28.190 C 295.939 28.190,295.602 27.933,295.481 27.619 C 295.356 27.292,294.787 27.048,294.152 27.048 C 293.362 27.048,292.984 26.828,292.842 26.286 C 292.707 25.771,292.322 25.524,291.655 25.524 C 291.030 25.524,290.667 25.313,290.667 24.952 C 290.667 24.638,290.428 24.381,290.136 24.381 C 289.844 24.381,289.507 24.124,289.386 23.810 C 289.265 23.495,288.751 23.238,288.243 23.238 C 287.735 23.238,287.221 22.981,287.100 22.667 C 286.980 22.352,286.442 22.095,285.905 22.095 C 285.368 22.095,284.830 21.838,284.709 21.524 C 284.584 21.198,284.016 20.952,283.388 20.952 C 282.662 20.952,282.286 20.757,282.286 20.381 C 282.286 20.000,281.905 19.810,281.143 19.810 C 280.381 19.810,280.000 19.619,280.000 19.238 C 280.000 18.862,279.624 18.667,278.902 18.667 C 278.124 18.667,277.745 18.444,277.604 17.905 C 277.459 17.350,277.084 17.143,276.226 17.143 C 275.433 17.143,275.048 16.956,275.048 16.571 C 275.048 16.190,274.667 16.000,273.905 16.000 C 273.143 16.000,272.762 15.810,272.762 15.429 C 272.762 15.048,272.381 14.857,271.619 14.857 C 270.857 14.857,270.476 14.667,270.476 14.286 C 270.476 13.903,270.094 13.714,269.321 13.714 C 268.646 13.714,268.075 13.477,267.947 13.143 C 267.798 12.755,267.191 12.571,266.054 12.571 C 264.821 12.571,264.381 12.421,264.381 12.000 C 264.381 11.619,264.000 11.429,263.238 11.429 C 262.476 11.429,262.095 11.238,262.095 10.857 C 262.095 10.436,261.655 10.286,260.422 10.286 C 259.286 10.286,258.678 10.102,258.529 9.714 C 258.379 9.323,257.766 9.143,256.583 9.143 C 255.111 9.143,254.857 9.031,254.857 8.381 C 254.857 7.732,254.603 7.619,253.143 7.619 C 251.873 7.619,251.429 7.471,251.429 7.048 C 251.429 6.616,250.963 6.476,249.524 6.476 C 248.085 6.476,247.619 6.337,247.619 5.905 C 247.619 5.484,247.179 5.333,245.946 5.333 C 244.809 5.333,244.202 5.150,244.053 4.762 C 243.891 4.341,243.227 4.190,241.536 4.190 C 239.747 4.190,239.238 4.064,239.238 3.619 C 239.238 3.175,238.730 3.048,236.952 3.048 C 235.175 3.048,234.667 2.921,234.667 2.476 C 234.667 2.016,234.074 1.905,231.619 1.905 C 229.164 1.905,228.571 1.794,228.571 1.333 C 228.571 0.873,227.979 0.762,225.524 0.762 C 223.746 0.762,222.476 0.603,222.476 0.381 C 222.476 0.130,211.492 0.000,190.286 0.000 C 169.079 0.000,158.095 0.130,158.095 0.381 M157.097 146.838 C 156.916 147.310,156.191 147.429,153.471 147.429 C 150.801 147.429,150.024 147.551,149.852 148.000 C 149.680 148.449,148.905 148.571,146.245 148.571 C 143.488 148.571,142.857 148.678,142.857 149.143 C 142.857 149.591,142.332 149.714,140.412 149.714 C 137.252 149.714,136.762 149.925,136.762 151.279 C 136.762 152.005,136.567 152.381,136.190 152.381 C 135.810 152.381,135.619 152.762,135.619 153.524 C 135.619 154.286,135.429 154.667,135.048 154.667 C 134.667 154.667,134.476 155.048,134.476 155.810 C 134.476 156.556,134.284 156.952,133.922 156.952 C 133.590 156.952,133.267 157.488,133.118 158.286 C 132.974 159.049,132.642 159.619,132.339 159.619 C 132.005 159.619,131.810 160.041,131.810 160.762 C 131.810 161.524,131.619 161.905,131.238 161.905 C 130.857 161.905,130.667 162.286,130.667 163.048 C 130.667 163.810,130.476 164.190,130.095 164.190 C 129.714 164.190,129.524 164.571,129.524 165.333 C 129.524 166.095,129.333 166.476,128.952 166.476 C 128.553 166.476,128.381 166.878,128.381 167.810 C 128.381 168.741,128.209 169.143,127.810 169.143 C 127.429 169.143,127.238 169.524,127.238 170.286 C 127.238 171.048,127.048 171.429,126.667 171.429 C 126.243 171.429,126.095 171.873,126.095 173.143 C 126.095 174.413,125.947 174.857,125.524 174.857 C 125.128 174.857,124.952 175.254,124.952 176.146 C 124.952 177.115,124.763 177.484,124.190 177.634 C 123.585 177.792,123.429 178.154,123.429 179.393 C 123.429 180.525,123.272 180.952,122.857 180.952 C 122.481 180.952,122.286 181.329,122.286 182.054 C 122.286 182.683,122.040 183.251,121.714 183.376 C 121.323 183.526,121.143 184.138,121.143 185.321 C 121.143 186.602,120.995 187.048,120.571 187.048 C 120.148 187.048,120.000 187.492,120.000 188.762 C 120.000 190.032,119.852 190.476,119.429 190.476 C 119.052 190.476,118.857 190.853,118.857 191.578 C 118.857 192.207,118.611 192.775,118.286 192.900 C 117.894 193.050,117.714 193.662,117.714 194.845 C 117.714 196.126,117.567 196.571,117.143 196.571 C 116.720 196.571,116.571 197.016,116.571 198.286 C 116.571 199.483,116.414 200.000,116.050 200.000 C 115.528 200.000,115.060 201.832,115.052 203.905 C 115.049 204.580,114.845 204.952,114.476 204.952 C 114.055 204.952,113.905 205.392,113.905 206.626 C 113.905 207.762,113.721 208.370,113.333 208.519 C 112.913 208.680,112.762 209.345,112.762 211.036 C 112.762 212.824,112.635 213.333,112.190 213.333 C 111.769 213.333,111.619 213.773,111.619 215.007 C 111.619 216.143,111.436 216.751,111.048 216.900 C 110.627 217.061,110.476 217.726,110.476 219.417 C 110.476 221.205,110.350 221.714,109.905 221.714 C 109.448 221.714,109.333 222.286,109.333 224.571 C 109.333 226.857,109.219 227.429,108.762 227.429 C 108.302 227.429,108.190 228.021,108.190 230.476 C 108.190 232.931,108.079 233.524,107.619 233.524 C 107.159 233.524,107.048 234.116,107.048 236.571 C 107.048 239.365,106.984 239.619,106.286 239.619 C 105.581 239.619,105.524 239.873,105.524 243.001 C 105.524 245.542,105.382 246.501,104.952 246.857 C 104.497 247.235,104.381 248.362,104.381 252.428 C 104.381 256.704,104.289 257.524,103.810 257.524 C 102.943 257.524,102.943 303.530,103.810 303.862 C 104.273 304.040,104.381 304.938,104.381 308.624 C 104.381 312.311,104.489 313.208,104.952 313.386 C 105.388 313.553,105.524 314.267,105.524 316.396 C 105.524 318.852,105.615 319.216,106.286 319.429 C 106.958 319.642,107.048 320.005,107.048 322.502 C 107.048 324.765,107.162 325.333,107.619 325.333 C 108.051 325.333,108.190 325.799,108.190 327.238 C 108.190 328.677,108.330 329.143,108.762 329.143 C 109.206 329.143,109.333 329.651,109.333 331.429 C 109.333 333.206,109.460 333.714,109.905 333.714 C 110.328 333.714,110.476 334.159,110.476 335.429 C 110.476 336.698,110.624 337.143,111.048 337.143 C 111.447 337.143,111.619 337.545,111.619 338.476 C 111.619 339.407,111.791 339.810,112.190 339.810 C 112.614 339.810,112.762 340.254,112.762 341.524 C 112.762 342.794,112.910 343.238,113.333 343.238 C 113.714 343.238,113.905 343.619,113.905 344.381 C 113.905 345.102,114.100 345.524,114.434 345.524 C 114.737 345.524,115.070 346.093,115.213 346.857 C 115.363 347.655,115.686 348.190,116.017 348.190 C 116.379 348.190,116.571 348.587,116.571 349.333 C 116.571 350.095,116.762 350.476,117.143 350.476 C 117.524 350.476,117.714 350.857,117.714 351.619 C 117.714 352.381,117.905 352.762,118.286 352.762 C 118.662 352.762,118.857 353.138,118.857 353.864 C 118.857 354.492,119.103 355.060,119.429 355.185 C 119.743 355.306,120.000 355.667,120.000 355.988 C 120.000 356.309,120.257 356.571,120.571 356.571 C 120.952 356.571,121.143 356.952,121.143 357.714 C 121.143 358.476,121.333 358.857,121.714 358.857 C 122.029 358.857,122.286 359.114,122.286 359.429 C 122.286 359.743,122.543 360.000,122.857 360.000 C 123.218 360.000,123.429 360.364,123.429 360.988 C 123.429 361.656,123.676 362.041,124.190 362.175 C 124.610 362.285,124.952 362.617,124.952 362.914 C 124.952 363.210,125.210 363.551,125.524 363.672 C 125.838 363.792,126.095 364.266,126.095 364.725 C 126.095 365.185,126.601 365.979,127.222 366.494 C 127.842 367.008,128.356 367.643,128.365 367.905 C 128.374 368.167,128.638 368.381,128.952 368.381 C 129.267 368.381,129.524 368.638,129.524 368.952 C 129.524 369.267,129.781 369.524,130.095 369.524 C 130.410 369.524,130.667 369.781,130.667 370.095 C 130.667 370.410,130.924 370.667,131.238 370.667 C 131.552 370.667,131.810 370.924,131.810 371.238 C 131.810 371.552,132.083 371.810,132.417 371.810 C 132.751 371.810,133.113 372.152,133.223 372.571 C 133.333 372.990,133.659 373.333,133.949 373.333 C 134.239 373.333,134.476 373.590,134.476 373.905 C 134.476 374.328,134.921 374.476,136.190 374.476 C 137.460 374.476,137.905 374.624,137.905 375.048 C 137.905 375.471,138.351 375.619,139.631 375.619 C 140.814 375.619,141.426 375.799,141.577 376.190 C 141.737 376.609,142.397 376.762,144.041 376.762 C 145.782 376.762,146.286 376.890,146.286 377.333 C 146.286 377.783,146.815 377.905,148.762 377.905 C 150.709 377.905,151.238 378.027,151.238 378.476 C 151.238 378.933,151.805 379.048,154.054 379.048 C 156.207 379.048,156.923 379.182,157.090 379.619 C 157.266 380.077,158.107 380.190,161.321 380.190 C 163.742 380.190,165.333 380.342,165.333 380.571 C 165.333 380.822,174.921 380.952,193.333 380.952 C 211.746 380.952,221.333 380.822,221.333 380.571 C 221.333 380.344,222.794 380.190,224.952 380.190 C 227.915 380.190,228.571 380.087,228.571 379.619 C 228.571 379.159,229.164 379.048,231.619 379.048 C 234.074 379.048,234.667 378.937,234.667 378.476 C 234.667 378.032,235.175 377.905,236.952 377.905 C 238.730 377.905,239.238 377.778,239.238 377.333 C 239.238 376.884,239.767 376.762,241.714 376.762 C 243.661 376.762,244.190 376.640,244.190 376.190 C 244.190 375.876,244.448 375.619,244.762 375.619 C 245.143 375.619,245.333 375.238,245.333 374.476 L 245.333 373.333 243.048 373.333 C 241.270 373.333,240.762 373.460,240.762 373.905 C 240.762 374.398,239.429 374.476,231.048 374.476 C 222.667 374.476,221.333 374.398,221.333 373.905 C 221.333 373.439,220.698 373.333,217.905 373.333 C 215.111 373.333,214.476 373.228,214.476 372.762 C 214.476 372.353,214.059 372.190,213.011 372.190 C 212.092 372.190,211.217 371.906,210.667 371.429 C 210.177 371.004,209.241 370.667,208.554 370.667 C 207.808 370.667,207.233 370.440,207.100 370.095 C 206.950 369.704,206.338 369.524,205.155 369.524 C 203.874 369.524,203.429 369.376,203.429 368.952 C 203.429 368.571,203.048 368.381,202.286 368.381 C 201.524 368.381,201.143 368.190,201.143 367.810 C 201.143 367.429,200.762 367.238,200.000 367.238 C 199.238 367.238,198.857 367.048,198.857 366.667 C 198.857 366.352,198.618 366.095,198.326 366.095 C 198.035 366.095,197.697 365.838,197.577 365.524 C 197.448 365.190,196.878 364.952,196.202 364.952 C 195.430 364.952,195.048 364.763,195.048 364.381 C 195.048 364.067,194.790 363.810,194.476 363.810 C 194.162 363.810,193.905 363.566,193.905 363.268 C 193.905 362.971,193.390 362.614,192.762 362.476 C 192.133 362.338,191.619 361.982,191.619 361.684 C 191.619 361.386,191.362 361.143,191.048 361.143 C 190.733 361.143,190.476 360.886,190.476 360.571 C 190.476 360.257,190.237 360.000,189.946 360.000 C 189.654 360.000,189.316 359.743,189.196 359.429 C 189.075 359.114,188.561 358.857,188.053 358.857 C 187.545 358.857,187.030 358.600,186.910 358.286 C 186.789 357.971,186.428 357.714,186.107 357.714 C 185.786 357.714,185.524 357.457,185.524 357.143 C 185.524 356.829,185.267 356.571,184.952 356.571 C 184.638 356.571,184.381 356.314,184.381 356.000 C 184.381 355.686,184.124 355.429,183.810 355.429 C 183.495 355.429,183.238 355.166,183.238 354.845 C 183.238 354.524,182.981 354.163,182.667 354.043 C 182.352 353.922,182.095 353.584,182.095 353.293 C 182.095 353.001,181.838 352.762,181.524 352.762 C 181.210 352.762,180.952 352.505,180.952 352.190 C 180.952 351.876,180.695 351.619,180.381 351.619 C 180.067 351.619,179.810 351.362,179.810 351.048 C 179.810 350.733,179.571 350.476,179.279 350.476 C 178.987 350.476,178.650 350.219,178.529 349.905 C 178.408 349.590,178.047 349.333,177.726 349.333 C 177.405 349.333,177.143 349.076,177.143 348.762 C 177.143 348.448,176.886 348.190,176.571 348.190 C 176.190 348.190,176.000 347.810,176.000 347.048 C 176.000 346.286,175.810 345.905,175.429 345.905 C 175.114 345.905,174.857 345.642,174.857 345.321 C 174.857 345.001,174.600 344.639,174.286 344.519 C 173.971 344.398,173.714 344.061,173.714 343.769 C 173.714 343.477,173.457 343.238,173.143 343.238 C 172.829 343.238,172.571 342.981,172.571 342.667 C 172.571 342.352,172.314 342.095,172.000 342.095 C 171.643 342.095,171.429 341.734,171.429 341.131 C 171.429 340.601,171.171 340.068,170.857 339.947 C 170.543 339.827,170.286 339.489,170.286 339.197 C 170.286 338.905,170.024 338.667,169.705 338.667 C 169.364 338.667,169.029 338.194,168.895 337.524 C 168.770 336.895,168.431 336.381,168.143 336.381 C 167.855 336.381,167.619 336.038,167.619 335.619 C 167.619 335.196,167.365 334.857,167.048 334.857 C 166.667 334.857,166.476 334.476,166.476 333.714 C 166.476 332.952,166.286 332.571,165.905 332.571 C 165.590 332.571,165.333 332.314,165.333 332.000 C 165.333 331.686,165.076 331.429,164.762 331.429 C 164.381 331.429,164.190 331.048,164.190 330.286 C 164.190 329.524,164.000 329.143,163.619 329.143 C 163.237 329.143,163.048 328.761,163.048 327.988 C 163.048 327.313,162.810 326.742,162.476 326.614 C 162.162 326.493,161.905 326.082,161.905 325.701 C 161.905 325.319,161.656 324.758,161.352 324.454 C 161.048 324.150,160.687 323.452,160.549 322.903 C 160.411 322.354,160.060 321.905,159.768 321.905 C 159.433 321.905,159.238 321.484,159.238 320.762 C 159.238 320.000,159.048 319.619,158.667 319.619 C 158.284 319.619,158.095 319.237,158.095 318.464 C 158.095 317.789,157.858 317.218,157.524 317.090 C 157.198 316.965,156.952 316.397,156.952 315.769 C 156.952 315.043,156.757 314.667,156.381 314.667 C 156.000 314.667,155.810 314.286,155.810 313.524 C 155.810 312.762,155.619 312.381,155.238 312.381 C 154.814 312.381,154.667 311.935,154.667 310.655 C 154.667 309.472,154.487 308.859,154.095 308.709 C 153.722 308.566,153.524 307.972,153.524 306.995 C 153.524 306.017,153.326 305.424,152.952 305.281 C 152.632 305.158,152.381 304.591,152.381 303.990 C 152.381 302.533,152.024 301.714,151.388 301.714 C 151.005 301.714,150.857 301.184,150.857 299.810 C 150.857 298.370,150.717 297.905,150.286 297.905 C 149.862 297.905,149.714 297.460,149.714 296.190 C 149.714 294.921,149.566 294.476,149.143 294.476 C 148.698 294.476,148.571 293.967,148.571 292.179 C 148.571 290.488,148.421 289.823,148.000 289.662 C 147.582 289.501,147.429 288.841,147.429 287.197 C 147.429 285.456,147.300 284.952,146.857 284.952 C 146.400 284.952,146.286 284.380,146.286 282.083 C 146.286 279.884,146.152 279.163,145.714 278.995 C 145.257 278.819,145.143 277.983,145.143 274.804 C 145.143 271.626,145.029 270.789,144.571 270.614 C 144.074 270.423,144.000 267.872,144.000 250.857 C 144.000 233.842,144.074 231.291,144.571 231.100 C 145.042 230.920,145.143 229.936,145.143 225.536 C 145.143 221.038,145.233 220.190,145.714 220.190 C 146.188 220.190,146.286 219.471,146.286 216.000 C 146.286 212.529,146.384 211.810,146.857 211.810 C 147.322 211.810,147.429 211.179,147.429 208.422 C 147.429 205.762,147.551 204.987,148.000 204.815 C 148.450 204.642,148.571 203.862,148.571 201.155 C 148.571 198.351,148.677 197.714,149.143 197.714 C 149.603 197.714,149.714 197.122,149.714 194.667 C 149.714 192.212,149.825 191.619,150.286 191.619 C 150.735 191.619,150.857 191.090,150.857 189.143 C 150.857 187.280,150.989 186.667,151.388 186.667 C 152.134 186.667,152.381 185.807,152.381 183.207 C 152.381 181.457,152.509 180.952,152.952 180.952 C 153.402 180.952,153.524 180.423,153.524 178.476 C 153.524 176.529,153.646 176.000,154.095 176.000 C 154.540 176.000,154.667 175.492,154.667 173.714 C 154.667 171.937,154.794 171.429,155.238 171.429 C 155.687 171.429,155.810 170.899,155.810 168.952 C 155.810 167.005,155.932 166.476,156.381 166.476 C 156.802 166.476,156.952 166.036,156.952 164.803 C 156.952 163.667,157.136 163.059,157.524 162.910 C 157.944 162.748,158.095 162.084,158.095 160.393 C 158.095 158.605,158.222 158.095,158.667 158.095 C 159.090 158.095,159.238 157.651,159.238 156.381 C 159.238 155.170,159.394 154.667,159.769 154.667 C 160.429 154.667,160.762 153.839,160.762 152.200 C 160.762 151.411,160.983 150.854,161.353 150.712 C 161.806 150.538,161.918 150.015,161.830 148.480 L 161.714 146.476 159.519 146.362 C 157.814 146.273,157.274 146.379,157.097 146.838 M40.000 199.429 C 40.000 199.743,39.743 200.000,39.429 200.000 C 39.114 200.000,38.857 199.743,38.857 199.429 C 38.857 199.114,39.114 198.857,39.429 198.857 C 39.743 198.857,40.000 199.114,40.000 199.429 " stroke="none" fill="#0474cc" fill-rule="evenodd"></path><path id="path1" d="" stroke="none" fill="#0874cc" fill-rule="evenodd"></path><path id="path2" d="" stroke="none" fill="#0874cc" fill-rule="evenodd"></path><path id="path3" d="" stroke="none" fill="#0874cc" fill-rule="evenodd"></path><path id="path4" d="" stroke="none" fill="#0874cc" fill-rule="evenodd"></path></g></svg>