<svg id="svg" version="1.1" xmlns="http://www.w3.org/2000/svg" xmlns:xlink="http://www.w3.org/1999/xlink" width="400" height="400" viewBox="0, 0, 400,400"><g id="svgg"><path id="path0" d="M172.993 143.107 C 159.569 156.468,144.764 171.171,140.093 175.779 L 131.600 184.159 131.600 242.079 L 131.600 300.000 156.753 300.000 L 181.907 300.000 182.148 299.100 C 182.579 297.492,182.436 247.600,182.000 247.600 C 181.470 247.600,181.486 246.518,182.021 246.187 C 182.670 245.786,190.400 253.998,190.400 255.088 C 190.400 255.872,194.536 260.000,195.321 260.000 C 195.841 260.000,203.218 267.405,206.691 271.413 C 207.923 272.834,208.249 273.457,207.891 273.708 C 207.596 273.915,207.784 273.944,208.361 273.780 C 209.122 273.564,209.272 273.635,209.085 274.123 C 208.815 274.827,215.189 281.600,216.121 281.600 C 217.156 281.600,232.881 298.202,233.115 299.542 C 233.315 300.692,284.000 300.320,284.000 299.169 C 284.000 298.940,283.833 298.856,283.629 298.982 C 283.425 299.108,283.136 298.828,282.987 298.360 C 282.622 297.209,283.170 292.334,283.632 292.620 C 283.835 292.745,284.000 292.297,284.000 291.624 C 284.000 290.951,283.820 290.400,283.600 290.400 C 283.380 290.400,283.200 290.127,283.200 289.794 C 283.200 289.064,276.625 282.400,275.905 282.400 C 275.065 282.400,261.893 268.492,260.843 266.496 C 259.806 264.525,254.012 258.585,252.730 258.178 C 251.452 257.772,235.801 241.864,236.470 241.651 C 236.762 241.559,237.145 241.238,237.321 240.939 C 237.557 240.541,237.844 240.503,238.395 240.797 C 239.400 241.335,239.600 241.306,239.600 240.624 C 239.600 239.775,240.349 239.460,241.027 240.022 C 241.520 240.431,241.572 240.393,241.342 239.792 C 241.115 239.202,241.222 239.112,241.933 239.298 C 242.542 239.458,242.800 239.344,242.800 238.916 C 242.800 238.504,243.059 238.374,243.600 238.516 C 244.140 238.657,244.400 238.528,244.400 238.119 C 244.400 237.674,244.663 237.579,245.391 237.762 C 246.219 237.970,246.425 237.840,246.642 236.975 C 246.853 236.134,247.076 235.983,247.824 236.170 C 248.534 236.349,248.810 236.199,249.026 235.519 C 249.409 234.312,250.099 233.691,251.427 233.357 C 252.728 233.031,255.352 230.570,255.003 230.005 C 254.649 229.432,255.947 227.669,257.146 227.095 C 257.725 226.817,258.216 226.322,258.238 225.995 C 258.355 224.248,258.448 224.000,258.987 224.000 C 259.344 224.000,259.485 223.765,259.346 223.403 C 259.215 223.063,259.392 222.701,259.758 222.561 C 260.111 222.425,260.400 222.064,260.400 221.757 C 260.400 221.451,260.580 221.200,260.800 221.200 C 261.020 221.200,261.200 220.840,261.200 220.400 C 261.200 219.960,261.392 219.600,261.627 219.600 C 261.872 219.600,261.946 219.259,261.800 218.800 C 261.627 218.255,261.728 218.000,262.118 218.000 C 262.511 218.000,262.630 217.689,262.498 217.000 C 262.359 216.272,262.480 216.000,262.943 216.000 C 263.437 216.000,263.526 215.731,263.341 214.806 C 263.173 213.967,263.274 213.547,263.680 213.391 C 264.063 213.244,264.199 212.773,264.084 211.989 C 263.961 211.155,264.102 210.736,264.563 210.559 C 265.095 210.355,265.168 209.950,264.957 208.361 C 264.762 206.894,264.835 206.362,265.249 206.202 C 266.082 205.883,266.110 193.328,265.278 193.009 C 264.830 192.837,264.757 192.345,264.957 190.839 C 265.169 189.244,265.096 188.846,264.557 188.639 C 264.056 188.447,263.951 188.058,264.119 187.024 C 264.275 186.058,264.174 185.599,263.770 185.444 C 263.456 185.323,263.200 184.982,263.200 184.684 C 263.200 184.387,253.165 174.183,240.900 162.008 C 228.635 149.833,213.830 135.134,208.000 129.343 L 197.400 118.814 172.993 143.107 M196.122 178.225 C 196.492 178.367,196.679 178.672,196.536 178.903 C 196.363 179.184,196.817 179.236,197.918 179.059 C 199.044 178.879,199.659 178.954,199.879 179.299 C 200.056 179.574,200.650 179.800,201.200 179.800 C 201.839 179.800,202.158 179.999,202.083 180.351 C 202.002 180.732,202.226 180.834,202.807 180.682 C 203.307 180.552,203.731 180.675,203.850 180.986 C 203.961 181.274,204.580 181.616,205.226 181.745 C 205.872 181.874,206.405 182.210,206.410 182.490 C 206.416 182.770,207.091 183.322,207.910 183.716 C 209.471 184.465,211.333 186.494,211.333 187.444 C 211.333 187.750,211.567 188.000,211.853 188.000 C 212.550 188.000,213.256 189.389,212.956 190.171 C 212.797 190.584,212.938 190.800,213.365 190.800 C 213.859 190.800,213.955 191.040,213.764 191.800 C 213.572 192.565,213.669 192.800,214.175 192.800 C 214.716 192.800,214.788 193.058,214.571 194.216 C 214.374 195.267,214.438 195.602,214.821 195.516 C 215.218 195.426,215.349 196.566,215.391 200.500 C 215.435 204.607,215.338 205.600,214.891 205.600 C 214.483 205.600,214.406 205.917,214.600 206.800 C 214.812 207.763,214.730 208.000,214.188 208.000 C 213.668 208.000,213.571 208.229,213.764 209.000 C 213.953 209.752,213.858 210.000,213.381 210.000 C 212.941 210.000,212.820 210.232,212.985 210.754 C 213.166 211.324,212.978 211.569,212.207 211.763 C 211.365 211.974,211.232 212.186,211.435 212.996 C 211.720 214.131,208.316 217.805,206.575 218.242 C 206.039 218.377,205.600 218.758,205.600 219.090 C 205.600 219.496,205.339 219.625,204.800 219.484 C 204.259 219.343,204.000 219.472,204.000 219.884 C 204.000 220.296,203.741 220.426,203.200 220.284 C 202.676 220.147,202.400 220.272,202.400 220.645 C 202.400 221.045,202.117 221.144,201.454 220.978 C 200.789 220.811,200.433 220.938,200.253 221.405 C 200.049 221.939,199.684 222.017,198.405 221.801 C 197.206 221.598,196.652 221.691,196.168 222.175 C 195.619 222.724,194.557 222.803,188.954 222.709 L 182.385 222.600 182.292 200.346 L 182.200 178.092 188.824 178.030 C 192.467 177.995,195.751 178.083,196.122 178.225 " stroke="none" fill="#0d5373" fill-rule="evenodd"></path><path id="path1" d="M151.200 99.200 C 151.200 99.420,150.922 99.600,150.582 99.600 C 149.782 99.600,148.000 101.382,148.000 102.182 C 148.000 102.522,147.820 102.800,147.600 102.800 C 147.377 102.800,147.200 103.875,147.200 105.224 C 147.200 106.737,147.350 107.554,147.600 107.400 C 147.820 107.264,148.000 107.523,148.000 107.976 C 148.000 108.429,148.180 108.800,148.400 108.800 C 148.620 108.800,148.800 109.083,148.800 109.429 C 148.800 110.373,149.814 111.200,150.971 111.200 C 151.537 111.200,152.000 111.380,152.000 111.600 C 152.000 111.820,152.360 112.000,152.800 112.000 C 153.585 112.000,153.600 112.265,153.596 126.100 L 153.593 140.200 152.312 141.200 C 151.608 141.750,149.045 144.216,146.616 146.680 C 132.523 160.977,128.172 165.196,127.505 165.212 C 127.227 165.219,126.550 165.773,126.000 166.443 C 125.450 167.114,123.695 168.996,122.100 170.625 C 120.505 172.254,119.200 173.860,119.200 174.194 C 119.200 174.527,119.020 174.800,118.800 174.800 C 118.580 174.800,118.400 175.070,118.400 175.400 C 118.400 175.730,118.220 176.000,118.000 176.000 C 117.778 176.000,117.600 177.067,117.600 178.400 C 117.600 179.733,117.778 180.800,118.000 180.800 C 118.220 180.800,118.400 181.255,118.400 181.811 C 118.400 183.189,121.611 186.400,122.989 186.400 C 123.545 186.400,124.000 186.580,124.000 186.800 C 124.000 187.020,124.810 187.200,125.800 187.200 C 126.790 187.200,127.600 187.020,127.600 186.800 C 127.600 186.580,127.960 186.400,128.400 186.400 C 128.840 186.400,129.200 186.264,129.200 186.098 C 129.200 185.931,129.740 185.556,130.400 185.264 C 131.098 184.955,131.600 184.429,131.600 184.007 C 131.600 183.607,132.805 182.137,134.277 180.740 C 135.749 179.343,150.430 164.790,166.901 148.400 C 183.372 132.010,197.063 118.555,197.324 118.501 C 197.821 118.398,264.430 184.353,264.411 184.929 C 264.342 186.985,272.231 187.126,274.041 185.100 C 275.887 183.034,276.000 182.868,276.000 182.217 C 276.000 181.878,276.180 181.600,276.400 181.600 C 276.633 181.600,276.800 180.267,276.800 178.400 C 276.800 176.533,276.633 175.200,276.400 175.200 C 276.180 175.200,276.000 175.012,276.000 174.783 C 276.000 174.176,275.707 173.862,267.652 165.826 C 263.611 161.794,259.968 158.159,259.556 157.748 C 259.144 157.337,255.500 153.670,251.458 149.600 C 247.417 145.530,243.336 141.525,242.391 140.700 C 241.445 139.875,240.789 139.200,240.932 139.200 C 241.075 139.200,237.909 135.959,233.896 131.998 C 229.883 128.037,226.284 124.482,225.898 124.098 C 225.512 123.714,221.957 120.108,217.998 116.085 C 214.039 112.061,210.800 108.894,210.800 109.046 C 210.800 109.198,210.464 108.935,210.053 108.461 C 209.642 107.988,209.161 107.600,208.985 107.600 C 208.526 107.600,205.200 104.067,205.200 103.580 C 205.200 102.940,202.494 100.400,201.813 100.400 C 201.476 100.400,201.200 100.220,201.200 100.000 C 201.200 99.780,200.840 99.600,200.400 99.600 C 199.960 99.600,199.600 99.420,199.600 99.200 C 199.600 98.980,198.700 98.800,197.600 98.800 C 196.500 98.800,195.600 98.980,195.600 99.200 C 195.600 99.420,195.105 99.602,194.500 99.604 C 193.740 99.606,193.091 100.003,192.400 100.887 C 191.850 101.591,189.914 103.614,188.099 105.383 C 182.242 111.089,175.058 118.312,172.800 120.764 C 169.900 123.912,170.000 124.025,170.000 117.600 L 170.000 112.000 171.200 112.000 C 171.860 112.000,172.400 111.820,172.400 111.600 C 172.400 111.380,172.683 111.200,173.029 111.200 C 174.565 111.200,176.000 108.274,176.000 105.139 C 176.000 103.846,175.821 102.800,175.600 102.800 C 175.380 102.800,175.200 102.468,175.200 102.061 C 175.200 101.102,173.890 99.600,173.053 99.600 C 172.694 99.600,172.400 99.420,172.400 99.200 C 172.400 98.943,168.600 98.800,161.800 98.800 C 155.000 98.800,151.200 98.943,151.200 99.200 " stroke="none" fill="#16abe3" fill-rule="evenodd"></path><path id="path2" d="M184.000 178.800 C 184.000 179.047,186.067 179.200,189.400 179.200 C 192.733 179.200,194.800 179.047,194.800 178.800 C 194.800 178.553,192.733 178.400,189.400 178.400 C 186.067 178.400,184.000 178.553,184.000 178.800 M198.000 179.600 C 198.000 179.820,198.270 180.000,198.600 180.000 C 198.930 180.000,199.200 179.820,199.200 179.600 C 199.200 179.380,198.930 179.200,198.600 179.200 C 198.270 179.200,198.000 179.380,198.000 179.600 M200.400 180.400 C 200.400 180.620,200.670 180.800,201.000 180.800 C 201.330 180.800,201.600 180.620,201.600 180.400 C 201.600 180.180,201.330 180.000,201.000 180.000 C 200.670 180.000,200.400 180.180,200.400 180.400 M264.294 186.639 C 263.974 186.960,264.393 188.000,264.843 188.000 C 265.039 188.000,265.200 187.640,265.200 187.200 C 265.200 186.420,264.776 186.158,264.294 186.639 M211.277 188.830 C 211.356 189.067,211.591 189.260,211.800 189.260 C 212.009 189.260,212.245 189.067,212.323 188.830 C 212.402 188.594,212.167 188.400,211.800 188.400 C 211.433 188.400,211.198 188.594,211.277 188.830 M265.094 190.639 C 264.774 190.960,265.193 192.000,265.643 192.000 C 265.839 192.000,266.000 191.640,266.000 191.200 C 266.000 190.420,265.576 190.158,265.094 190.639 M214.400 197.200 C 214.400 197.980,214.824 198.242,215.306 197.761 C 215.626 197.440,215.207 196.400,214.757 196.400 C 214.561 196.400,214.400 196.760,214.400 197.200 M265.765 197.748 C 265.377 198.759,265.784 202.532,266.300 202.702 C 266.668 202.823,266.800 202.121,266.800 200.033 C 266.800 197.413,266.309 196.329,265.765 197.748 M214.400 203.600 C 214.400 204.116,214.603 204.399,214.900 204.300 C 215.175 204.208,215.400 203.893,215.400 203.600 C 215.400 203.307,215.175 202.992,214.900 202.900 C 214.603 202.801,214.400 203.084,214.400 203.600 M265.200 208.200 C 265.200 208.530,265.380 208.800,265.600 208.800 C 265.820 208.800,266.000 208.530,266.000 208.200 C 266.000 207.870,265.820 207.600,265.600 207.600 C 265.380 207.600,265.200 207.870,265.200 208.200 M264.269 211.763 C 264.044 212.350,264.304 212.800,264.867 212.800 C 265.313 212.800,265.294 211.705,264.842 211.426 C 264.645 211.304,264.387 211.456,264.269 211.763 M208.864 214.989 C 207.521 216.465,207.361 216.800,207.997 216.800 C 208.472 216.800,210.800 214.426,210.800 213.941 C 210.800 213.253,210.098 213.634,208.864 214.989 M263.600 214.600 C 263.600 214.930,263.780 215.200,264.000 215.200 C 264.220 215.200,264.400 214.930,264.400 214.600 C 264.400 214.270,264.220 214.000,264.000 214.000 C 263.780 214.000,263.600 214.270,263.600 214.600 M262.800 217.000 C 262.800 217.330,262.980 217.600,263.200 217.600 C 263.420 217.600,263.600 217.330,263.600 217.000 C 263.600 216.670,263.420 216.400,263.200 216.400 C 262.980 216.400,262.800 216.670,262.800 217.000 M198.000 221.200 C 198.000 221.420,198.360 221.600,198.800 221.600 C 199.240 221.600,199.600 221.420,199.600 221.200 C 199.600 220.980,199.240 220.800,198.800 220.800 C 198.360 220.800,198.000 220.980,198.000 221.200 M182.800 222.000 C 182.800 222.248,184.933 222.400,188.400 222.400 C 191.867 222.400,194.000 222.248,194.000 222.000 C 194.000 221.752,191.867 221.600,188.400 221.600 C 184.933 221.600,182.800 221.752,182.800 222.000 M256.400 228.000 C 256.400 228.220,256.670 228.400,257.000 228.400 C 257.330 228.400,257.600 228.220,257.600 228.000 C 257.600 227.780,257.330 227.600,257.000 227.600 C 256.670 227.600,256.400 227.780,256.400 228.000 M240.000 240.600 C 240.000 240.967,240.194 241.202,240.430 241.123 C 240.667 241.045,240.860 240.809,240.860 240.600 C 240.860 240.391,240.667 240.155,240.430 240.077 C 240.194 239.998,240.000 240.233,240.000 240.600 M236.800 242.253 C 236.800 242.737,238.952 244.353,239.305 244.135 C 239.756 243.856,238.039 242.000,237.330 242.000 C 237.039 242.000,236.800 242.114,236.800 242.253 M244.000 249.009 C 244.000 249.123,244.945 250.182,246.100 251.360 C 247.255 252.538,249.010 254.418,250.000 255.538 C 251.542 257.282,252.800 258.116,252.800 257.395 C 252.800 257.283,250.912 255.303,248.605 252.995 C 244.681 249.072,244.000 248.482,244.000 249.009 M194.800 260.636 C 194.800 261.008,201.719 267.615,201.909 267.424 C 202.003 267.330,201.477 266.639,200.740 265.887 C 200.003 265.136,198.602 263.594,197.627 262.461 C 196.097 260.684,194.800 259.846,194.800 260.636 M268.400 274.169 C 268.400 274.316,268.850 274.886,269.400 275.436 C 270.321 276.357,270.780 276.333,270.094 275.400 C 269.629 274.768,268.400 273.874,268.400 274.169 M270.807 276.426 C 270.800 277.011,275.235 282.000,275.761 282.000 C 276.473 282.000,275.725 280.884,273.407 278.484 C 271.910 276.935,270.810 276.065,270.807 276.426 M216.000 282.406 C 216.000 283.034,222.025 288.912,222.330 288.582 C 222.479 288.422,222.375 288.210,222.100 288.112 C 221.825 288.014,221.600 287.775,221.600 287.581 C 221.600 287.128,216.752 282.000,216.324 282.000 C 216.146 282.000,216.000 282.183,216.000 282.406 M182.270 299.361 C 182.045 299.949,182.303 300.400,182.867 300.400 C 183.050 300.400,183.200 300.040,183.200 299.600 C 183.200 298.683,182.591 298.526,182.270 299.361 " stroke="none" fill="#72a1b2" fill-rule="evenodd"></path><path id="path3" d="M172.399 143.500 L 151.000 165.000 172.500 143.601 C 192.485 123.711,194.180 122.000,193.899 122.000 C 193.843 122.000,184.168 131.675,172.399 143.500 M212.000 133.400 C 215.625 137.030,218.681 140.000,218.791 140.000 C 218.901 140.000,216.025 137.030,212.400 133.400 C 208.775 129.770,205.719 126.800,205.609 126.800 C 205.499 126.800,208.375 129.770,212.000 133.400 M257.000 178.000 C 260.294 181.300,263.080 184.000,263.190 184.000 C 263.300 184.000,260.694 181.300,257.400 178.000 C 254.106 174.700,251.320 172.000,251.210 172.000 C 251.100 172.000,253.706 174.700,257.000 178.000 M192.900 178.294 C 193.945 178.376,194.800 178.614,194.800 178.822 C 194.800 179.302,196.279 179.319,196.574 178.842 C 196.925 178.274,195.720 177.994,193.267 178.072 L 191.000 178.144 192.900 178.294 M198.990 179.448 C 199.347 179.804,199.738 179.996,199.859 179.874 C 200.215 179.518,199.606 178.800,198.948 178.800 C 198.425 178.800,198.431 178.888,198.990 179.448 M200.900 179.876 C 201.285 179.976,201.600 180.236,201.600 180.453 C 201.600 180.670,201.783 180.734,202.007 180.596 C 202.642 180.203,202.047 179.595,201.076 179.646 C 200.400 179.682,200.359 179.734,200.900 179.876 M203.056 180.678 C 202.605 181.128,202.781 181.600,203.400 181.600 C 203.730 181.600,204.000 181.431,204.000 181.224 C 204.000 180.719,203.375 180.358,203.056 180.678 M206.800 183.429 C 206.800 183.881,207.955 184.800,208.522 184.800 C 209.383 184.800,210.052 185.798,209.739 186.615 C 209.550 187.107,209.611 187.241,209.932 187.042 C 210.212 186.869,210.400 187.000,210.400 187.369 C 210.400 187.708,210.855 188.099,211.412 188.239 C 212.159 188.426,212.364 188.682,212.196 189.213 C 211.946 190.001,212.595 190.656,212.991 190.015 C 213.326 189.472,212.495 188.000,211.853 188.000 C 211.567 188.000,211.333 187.750,211.333 187.444 C 211.333 186.679,209.625 184.626,208.338 183.845 C 207.219 183.165,206.800 183.052,206.800 183.429 M263.292 184.875 C 263.491 185.473,264.400 185.802,264.400 185.276 C 264.400 185.061,264.115 184.776,263.767 184.643 C 263.377 184.493,263.194 184.582,263.292 184.875 M264.092 188.075 C 264.291 188.673,265.200 189.002,265.200 188.476 C 265.200 188.261,264.915 187.976,264.567 187.843 C 264.177 187.693,263.994 187.782,264.092 188.075 M212.800 191.200 C 212.800 191.420,213.070 191.600,213.400 191.600 C 213.730 191.600,214.000 191.420,214.000 191.200 C 214.000 190.980,213.730 190.800,213.400 190.800 C 213.070 190.800,212.800 190.980,212.800 191.200 M264.864 192.004 C 264.939 192.517,265.225 193.011,265.500 193.102 C 266.206 193.335,266.121 192.464,265.364 191.707 C 264.782 191.125,264.739 191.150,264.864 192.004 M213.600 193.400 C 213.600 193.730,213.870 194.000,214.200 194.000 C 214.530 194.000,214.800 193.730,214.800 193.400 C 214.800 193.070,214.530 192.800,214.200 192.800 C 213.870 192.800,213.600 193.070,213.600 193.400 M214.594 195.610 C 214.431 195.874,214.546 196.244,214.849 196.432 C 215.514 196.845,215.873 196.113,215.290 195.530 C 215.024 195.264,214.791 195.290,214.594 195.610 M214.900 204.665 C 214.204 204.946,214.273 205.600,215.000 205.600 C 215.330 205.600,215.600 205.330,215.600 205.000 C 215.600 204.670,215.555 204.414,215.500 204.432 C 215.445 204.449,215.175 204.554,214.900 204.665 M265.067 206.267 C 264.524 206.810,264.787 207.980,265.400 207.745 C 265.730 207.618,266.000 207.174,266.000 206.757 C 266.000 205.997,265.565 205.769,265.067 206.267 M212.800 209.600 C 212.800 209.820,213.070 210.000,213.400 210.000 C 213.730 210.000,214.000 209.820,214.000 209.600 C 214.000 209.380,213.730 209.200,213.400 209.200 C 213.070 209.200,212.800 209.380,212.800 209.600 M212.000 210.967 C 212.000 211.315,212.285 211.600,212.633 211.600 C 213.340 211.600,213.217 210.739,212.475 210.492 C 212.214 210.405,212.000 210.618,212.000 210.967 M264.267 210.667 C 263.781 211.153,263.990 211.579,264.600 211.345 C 264.930 211.218,265.200 210.954,265.200 210.757 C 265.200 210.338,264.649 210.284,264.267 210.667 M210.557 213.433 C 210.691 213.781,210.803 214.276,210.806 214.533 C 210.814 215.156,211.586 213.949,211.594 213.300 C 211.597 213.025,211.311 212.800,210.957 212.800 C 210.535 212.800,210.398 213.018,210.557 213.433 M263.350 213.787 C 263.226 214.110,263.217 214.605,263.331 214.887 C 263.460 215.209,263.549 215.140,263.568 214.700 C 263.586 214.315,263.780 214.000,264.000 214.000 C 264.220 214.000,264.400 213.820,264.400 213.600 C 264.400 212.985,263.603 213.126,263.350 213.787 M262.432 216.900 C 262.453 217.501,262.539 217.601,262.692 217.200 C 262.817 216.870,263.118 216.468,263.360 216.306 C 263.631 216.125,263.532 216.010,263.100 216.006 C 262.630 216.002,262.410 216.295,262.432 216.900 M206.493 217.600 C 205.930 218.502,206.100 218.589,207.237 217.980 C 207.669 217.749,207.917 217.389,207.788 217.180 C 207.427 216.597,207.041 216.723,206.493 217.600 M261.692 218.475 C 261.939 219.217,262.800 219.340,262.800 218.633 C 262.800 218.285,262.515 218.000,262.167 218.000 C 261.818 218.000,261.605 218.214,261.692 218.475 M261.200 220.200 C 261.200 220.530,261.380 220.800,261.600 220.800 C 261.820 220.800,262.000 220.530,262.000 220.200 C 262.000 219.870,261.820 219.600,261.600 219.600 C 261.380 219.600,261.200 219.870,261.200 220.200 M199.600 221.171 C 199.600 221.375,199.285 221.633,198.900 221.745 C 198.479 221.867,198.586 221.918,199.169 221.874 C 200.104 221.803,200.912 220.800,200.033 220.800 C 199.795 220.800,199.600 220.967,199.600 221.171 M260.400 221.757 C 260.400 222.064,260.111 222.425,259.758 222.561 C 259.392 222.701,259.215 223.063,259.346 223.403 C 259.485 223.765,259.344 224.000,258.987 224.000 C 258.664 224.000,258.400 224.165,258.400 224.367 C 258.400 224.569,258.291 225.019,258.157 225.367 C 258.024 225.715,258.114 226.000,258.357 226.000 C 258.601 226.000,258.800 225.652,258.800 225.227 C 258.800 224.789,259.170 224.336,259.653 224.183 C 260.177 224.017,260.335 223.807,260.062 223.638 C 259.770 223.458,259.889 223.168,260.409 222.794 C 261.239 222.195,261.484 221.200,260.800 221.200 C 260.580 221.200,260.400 221.451,260.400 221.757 M182.100 222.100 C 182.275 222.627,193.672 223.058,195.500 222.607 C 196.615 222.332,196.688 221.600,195.600 221.600 C 195.160 221.600,194.800 221.780,194.800 222.000 C 194.800 222.249,192.533 222.400,188.800 222.400 C 185.067 222.400,182.800 222.249,182.800 222.000 C 182.800 221.780,182.605 221.600,182.367 221.600 C 182.128 221.600,182.008 221.825,182.100 222.100 M255.627 228.362 C 254.692 229.675,254.613 230.000,255.229 230.000 C 255.954 230.000,256.810 228.892,256.569 228.265 C 256.429 227.899,256.622 227.597,257.071 227.481 C 257.690 227.321,257.699 227.286,257.127 227.246 C 256.757 227.221,256.082 227.723,255.627 228.362 M250.807 233.496 C 249.850 233.872,249.120 234.768,249.336 235.304 C 249.495 235.696,249.543 235.696,249.568 235.300 C 249.586 235.025,249.883 234.800,250.229 234.800 C 250.574 234.800,251.114 234.543,251.429 234.229 C 252.377 233.280,252.122 232.980,250.807 233.496 M246.800 236.600 C 246.800 236.930,247.070 237.200,247.400 237.200 C 247.730 237.200,248.000 236.930,248.000 236.600 C 248.000 236.270,247.730 236.000,247.400 236.000 C 247.070 236.000,246.800 236.270,246.800 236.600 M242.800 239.000 C 242.800 239.330,243.070 239.600,243.400 239.600 C 243.730 239.600,244.000 239.330,244.000 239.000 C 244.000 238.670,243.730 238.400,243.400 238.400 C 243.070 238.400,242.800 238.670,242.800 239.000 M241.200 239.556 C 241.200 239.751,240.892 239.886,240.515 239.856 C 240.130 239.824,239.798 240.109,239.756 240.508 C 239.705 240.994,239.740 241.026,239.870 240.607 C 240.004 240.177,240.401 240.059,241.229 240.205 C 242.099 240.358,242.400 240.256,242.400 239.806 C 242.400 239.473,242.130 239.200,241.800 239.200 C 241.470 239.200,241.200 239.360,241.200 239.556 M237.311 240.958 C 237.140 241.247,236.730 241.575,236.400 241.687 C 235.970 241.834,236.476 242.522,238.186 244.116 C 239.499 245.340,240.742 246.236,240.948 246.108 C 241.155 245.981,241.213 246.055,241.079 246.273 C 240.821 246.690,247.886 254.247,248.221 253.912 C 248.327 253.806,247.061 252.348,245.407 250.672 C 243.753 248.997,242.400 247.432,242.400 247.195 C 242.400 246.594,240.547 244.801,239.918 244.794 C 239.633 244.790,238.800 244.258,238.066 243.611 C 236.775 242.473,236.660 241.600,237.800 241.600 C 238.603 241.600,238.897 240.923,238.208 240.659 C 237.885 240.535,237.481 240.669,237.311 240.958 M181.867 246.267 C 181.309 246.824,181.599 247.686,182.259 247.433 C 182.925 247.177,186.400 250.353,186.400 251.218 C 186.400 251.626,189.801 255.200,190.189 255.200 C 191.070 255.200,189.919 253.747,184.756 248.347 C 182.427 245.911,182.308 245.825,181.867 246.267 M250.770 256.900 C 251.303 257.505,252.023 257.986,252.370 257.968 C 252.909 257.941,252.914 257.905,252.400 257.718 C 252.070 257.597,251.350 257.116,250.800 256.649 L 249.800 255.800 250.770 256.900 M197.002 261.575 C 197.881 262.551,198.834 263.607,199.119 263.922 C 199.405 264.237,199.715 264.418,199.809 264.324 C 199.903 264.230,198.951 263.174,197.692 261.977 C 195.786 260.163,195.671 260.096,197.002 261.575 M200.471 265.344 C 201.961 266.877,203.413 268.697,203.513 269.158 C 203.652 269.800,207.514 273.600,208.027 273.600 C 208.232 273.600,208.400 273.859,208.400 274.176 C 208.400 274.493,208.550 274.845,208.733 274.959 C 209.587 275.487,208.933 273.790,207.833 272.625 C 207.155 271.907,205.250 269.853,203.600 268.061 C 201.950 266.269,200.452 264.802,200.271 264.802 C 200.091 264.801,200.181 265.045,200.471 265.344 M260.800 266.340 C 260.800 267.141,274.946 282.400,275.690 282.400 C 275.850 282.400,274.826 281.216,273.414 279.770 C 272.003 278.323,270.788 276.748,270.714 276.270 C 270.641 275.791,270.351 275.448,270.069 275.507 C 269.482 275.630,268.400 274.668,268.400 274.023 C 268.400 273.785,266.690 271.880,264.600 269.790 C 262.510 267.700,260.800 266.147,260.800 266.340 M219.200 284.553 C 220.190 285.653,221.495 287.041,222.100 287.637 C 222.705 288.233,223.200 288.907,223.200 289.134 C 223.200 289.360,223.515 289.649,223.900 289.774 C 224.285 289.899,224.944 290.722,225.364 291.601 C 225.785 292.480,226.400 293.200,226.731 293.200 C 227.062 293.200,227.227 293.306,227.097 293.437 C 226.862 293.671,232.567 299.600,233.027 299.600 C 233.832 299.600,230.141 295.416,222.800 288.005 C 219.830 285.007,218.210 283.454,219.200 284.553 M282.991 294.950 C 282.706 297.605,282.987 299.379,283.629 298.982 C 284.111 298.684,284.114 292.918,283.632 292.620 C 283.430 292.495,283.141 293.543,282.991 294.950 M258.600 300.000 L 233.800 300.209 257.700 300.305 C 273.303 300.367,281.600 300.539,281.600 300.800 C 281.600 301.020,282.061 301.200,282.624 301.200 C 283.204 301.200,283.540 301.027,283.400 300.800 C 283.264 300.580,283.343 300.400,283.576 300.400 C 283.809 300.400,284.000 300.220,284.000 300.000 C 284.000 299.780,283.865 299.643,283.700 299.695 C 283.535 299.748,272.240 299.885,258.600 300.000 M131.600 300.600 C 131.600 301.096,132.310 301.195,135.700 301.172 C 138.363 301.154,139.520 301.023,139.000 300.800 C 138.504 300.587,140.481 300.448,144.200 300.434 C 148.212 300.420,150.001 300.541,149.600 300.800 C 149.206 301.055,152.849 301.164,160.200 301.117 C 167.533 301.071,170.088 300.962,167.600 300.800 C 164.619 300.606,165.567 300.538,172.000 300.483 C 177.415 300.436,179.996 300.544,179.600 300.800 C 179.161 301.084,179.455 301.189,180.700 301.194 C 181.947 301.198,182.400 301.040,182.400 300.600 C 182.400 300.073,179.311 300.000,157.000 300.000 C 134.689 300.000,131.600 300.073,131.600 300.600 M244.515 301.096 C 245.788 301.176,247.768 301.175,248.915 301.094 C 250.062 301.014,249.020 300.949,246.600 300.950 C 244.180 300.951,243.242 301.016,244.515 301.096 " stroke="none" fill="#447285" fill-rule="evenodd"></path><path id="path4" d="M166.977 148.310 C 150.465 164.749,135.750 179.343,134.277 180.740 C 132.805 182.137,131.600 183.424,131.600 183.600 C 131.600 184.048,130.858 184.779,165.649 150.100 C 182.920 132.885,197.187 118.800,197.354 118.800 C 197.520 118.800,205.927 127.035,216.035 137.100 C 240.553 161.513,263.619 184.247,263.620 184.000 C 263.622 183.610,197.794 118.415,197.400 118.418 C 197.180 118.419,183.490 131.870,166.977 148.310 M186.112 178.295 C 187.164 178.377,188.784 178.376,189.712 178.292 C 190.640 178.208,189.780 178.141,187.800 178.142 C 185.820 178.143,185.060 178.212,186.112 178.295 M208.400 185.200 C 208.400 185.420,208.591 185.600,208.824 185.600 C 209.057 185.600,209.155 185.750,209.041 185.933 C 208.928 186.117,209.097 186.267,209.418 186.267 C 210.125 186.267,210.161 185.921,209.520 185.280 C 208.936 184.696,208.400 184.658,208.400 185.200 M239.200 244.400 C 239.200 244.620,239.470 244.800,239.800 244.800 C 240.130 244.800,240.400 244.620,240.400 244.400 C 240.400 244.180,240.130 244.000,239.800 244.000 C 239.470 244.000,239.200 244.180,239.200 244.400 M184.223 249.401 C 185.272 250.392,186.206 251.128,186.298 251.036 C 186.565 250.768,183.344 247.600,182.805 247.600 C 182.536 247.600,183.174 248.411,184.223 249.401 M202.000 267.559 C 202.000 268.195,203.092 269.305,203.323 268.903 C 203.419 268.736,203.161 268.254,202.749 267.830 C 202.296 267.364,202.000 267.257,202.000 267.559 M222.400 288.738 C 222.400 289.272,223.805 290.403,224.431 290.373 C 224.746 290.358,224.598 290.152,224.100 289.912 C 223.605 289.673,223.200 289.235,223.200 288.939 C 223.200 288.642,223.020 288.400,222.800 288.400 C 222.580 288.400,222.400 288.552,222.400 288.738 M139.000 300.800 C 140.107 301.276,148.864 301.276,149.600 300.800 C 150.001 300.541,148.212 300.420,144.200 300.434 C 140.481 300.448,138.504 300.587,139.000 300.800 M164.033 300.553 C 164.448 300.933,179.045 301.171,179.600 300.806 C 180.004 300.541,177.538 300.410,172.033 300.406 C 167.542 300.403,163.942 300.469,164.033 300.553 M235.055 300.711 C 234.949 300.882,245.379 301.070,258.231 301.128 C 274.235 301.200,281.600 301.102,281.600 300.817 C 281.600 300.322,235.360 300.217,235.055 300.711 " stroke="none" fill="#1c7fa7" fill-rule="evenodd"></path></g></svg>