<?xml version="1.0" ?><!DOCTYPE svg  PUBLIC '-//W3C//DTD SVG 1.1//EN'  'http://www.w3.org/Graphics/SVG/1.1/DTD/svg11.dtd'><svg enable-background="new 0 0 512 512" height="150px" id="Gmail_2_" version="1.1" viewBox="0 0 512 512" width="150px" xml:space="preserve" xmlns="http://www.w3.org/2000/svg" xmlns:xlink="http://www.w3.org/1999/xlink"><g id="bg_12_"><g><polygon fill="#A32828" points="0,0 0,512 355,512 512,354 512,0   "/></g></g><g id="Gmail_3_"><g id="inbox"><g><polygon fill="#E2E2E2" points="256,109 103,216 256,283 409,216    "/></g></g><g id="Rectangle_1"><g><rect fill="#FFFFFF" height="159" width="291" x="110" y="136"/></g></g><g id="M_left"><g><polygon fill="#A32828" points="173,145 119.766,145 119.766,288.722 155.979,288.722 155.979,169 256,264.479 256,223    "/></g></g><g id="M_Right"><g><polygon fill="#C63737" points="338.867,145 256,223.152 256,264.713 355.86,169.047 355.86,289.003 392.016,289.003      392.016,145    "/></g></g><g id="inbox_1_"><g><polygon fill="#FFFFFF" points="256,283 103,216 103,374 409,374 409,216    "/></g></g><g id="bevel"><g><polygon fill="#E2E2E2" points="405.482,213.54 256,279 106.517,213.54 103,216 256,283 409,216    "/></g></g></g><g id="Clip_Light_12_"><g><polygon fill="#C63737" points="355,354 355,512.02 512,354   "/></g></g><g id="Shadow_Clip_12_" opacity="0.102"><g><polygon points="198,512 355,512 355,353.98   "/></g></g></svg>